<svg width="469" height="53" viewBox="0 0 469 53" fill="none" xmlns="http://www.w3.org/2000/svg">
<path d="M27.9815 21.6478L3.56663 12.8641M27.9815 21.6478L52.4038 12.8932M27.9815 21.6478V50.8093M9.18086 44.505L25.0648 50.1112C26.1458 50.4927 26.6861 50.6833 27.2404 50.7592C27.7322 50.8263 28.2307 50.8263 28.7225 50.7592C29.2768 50.6833 29.8171 50.4927 30.8981 50.1112L46.782 44.505C48.8872 43.7621 49.9396 43.3907 50.7168 42.7244C51.4029 42.1361 51.9331 41.3871 52.2595 40.5442C52.6289 39.5898 52.6289 38.4735 52.6289 36.241V16.7451C52.6289 14.5127 52.6289 13.3965 52.2595 12.4421C51.9331 11.5992 51.4029 10.8501 50.7168 10.2618C49.9396 9.59562 48.8872 9.22413 46.782 8.48114L30.8981 2.87505C29.8171 2.49356 29.2768 2.30282 28.7225 2.22712C28.2307 2.15997 27.7322 2.15997 27.2404 2.22712C26.6861 2.30282 26.1458 2.49356 25.0648 2.87505L9.18086 8.48114C7.07572 9.22413 6.02316 9.59562 5.24619 10.2618C4.55995 10.8501 4.02997 11.5992 3.70356 12.4421C3.33398 13.3965 3.33398 14.5127 3.33398 16.7451V36.241C3.33398 38.4735 3.33398 39.5898 3.70356 40.5442C4.02997 41.3871 4.55995 42.1361 5.24619 42.7244C6.02316 43.3907 7.07572 43.7621 9.18086 44.505Z" stroke="white" stroke-width="4.31303" stroke-linecap="round" stroke-linejoin="round"/>
<path d="M96.4826 25.6143V25.8393C101.02 27.0018 103.27 29.1018 103.27 32.2143C103.27 34.8393 101.77 36.7893 98.7701 38.1018C95.7701 39.4143 91.6826 40.0518 86.4701 40.0518C84.6326 40.0518 82.4951 39.9393 80.0576 39.7518C77.6201 39.5643 75.8951 39.3018 74.8076 39.0393V33.8643C75.7826 34.2018 77.3951 34.5018 79.6076 34.8018C81.8201 35.0643 83.8076 35.2143 85.4951 35.2143C91.9076 35.2143 95.6576 33.7518 95.6576 31.5018C95.6951 29.2518 92.6951 28.0893 87.1076 27.9768C84.0701 27.9393 81.4826 28.0143 79.2701 28.2393V24.0393H81.0326C82.1201 24.0018 83.1701 24.0018 84.2201 24.0018H85.7951C91.1576 24.0018 94.4576 22.9143 94.4576 20.8143C94.4576 18.6768 91.6076 17.8518 85.6451 17.8518C84.2576 17.8518 82.5326 17.9643 80.4701 18.2268C78.4076 18.4518 76.9076 18.6768 76.0076 18.9018V13.9143C76.9826 13.7268 78.5951 13.5393 80.8826 13.3518C83.1701 13.1643 85.0451 13.0518 86.4701 13.0518C96.7826 13.0518 101.958 15.3018 101.958 19.8018C101.958 22.3893 99.9326 24.4518 96.4826 25.6143ZM108.399 39.6768V13.4268H124.749C130.112 13.4268 134.199 14.5893 137.049 16.9143C139.899 19.2393 141.324 22.4643 141.324 26.5518C141.324 30.6393 139.899 33.8643 137.049 36.1893C134.199 38.5143 130.112 39.6768 124.749 39.6768H108.399ZM124.374 18.6018H115.974V34.5018H124.374C130.187 34.5018 133.674 31.7643 133.674 26.5518C133.674 21.3393 130.224 18.6018 124.374 18.6018ZM180.171 32.0643L190.034 13.4268H200.084V39.6768H192.584V22.6518H192.396L183.284 39.6768H176.871L167.759 22.6518H167.571V39.6768H160.071V13.4268H170.084L179.984 32.0643H180.171ZM219.244 24.0768C215.344 24.0768 212.606 26.1018 212.606 29.7018C212.606 33.3018 215.344 35.3268 219.244 35.3268C223.181 35.3268 225.919 33.3018 225.919 29.7018C225.919 26.1018 223.181 24.0768 219.244 24.0768ZM233.381 29.7018C233.381 32.9268 232.144 35.4768 229.631 37.3143C227.119 39.1518 223.669 40.0518 219.281 40.0518C214.894 40.0518 211.406 39.1143 208.894 37.2768C206.381 35.4393 205.144 32.8893 205.144 29.7018C205.144 26.5143 206.381 23.9643 208.894 22.1268C211.406 20.2893 214.894 19.3518 219.281 19.3518C223.669 19.3518 227.119 20.2893 229.631 22.1268C232.144 23.9643 233.381 26.5143 233.381 29.7018ZM248.603 19.3518C252.691 19.3518 255.766 20.4768 257.866 22.6893H258.053V12.3018H265.478V39.6768H258.803L258.316 36.2643H258.128C255.916 38.7768 252.766 40.0518 248.603 40.0518C244.816 40.0518 241.853 39.1143 239.716 37.2393C237.578 35.3268 236.528 32.8143 236.528 29.6268C236.528 26.4768 237.578 23.9643 239.716 22.1268C241.853 20.2893 244.816 19.3518 248.603 19.3518ZM251.003 35.3268C255.091 35.3268 257.978 33.1143 257.978 29.6268C257.978 26.1768 255.091 24.0768 251.003 24.0768C246.766 24.0768 243.991 26.1393 243.991 29.6268C243.991 33.1893 246.766 35.3268 251.003 35.3268ZM297.938 29.4393V31.4643H277.913C278.476 34.0518 281.401 35.3268 286.651 35.3268C288.338 35.3268 290.138 35.1768 292.013 34.8393C293.888 34.5018 295.388 34.1268 296.476 33.7143V38.7018C295.163 39.1143 293.363 39.4143 291.001 39.6768C288.676 39.9393 286.538 40.0518 284.626 40.0518C275.363 40.0518 269.963 36.3018 269.963 29.7018C269.963 26.5893 271.201 24.0768 273.676 22.2018C276.188 20.2893 279.601 19.3518 283.913 19.3518C288.301 19.3518 291.713 20.2518 294.188 22.0518C296.663 23.8518 297.901 26.3268 297.938 29.4393ZM277.876 28.1268H290.063C289.876 25.4643 287.663 23.9643 283.913 23.9643C280.876 23.9643 278.513 25.5393 277.876 28.1268ZM302.334 39.6768V12.3018H309.759V39.6768H302.334ZM342.785 37.8768L340.46 42.6393C332.323 40.3518 327.56 34.6518 327.56 26.5518C327.56 18.4518 332.323 12.7518 340.46 10.4643L342.785 15.2268C337.985 17.0268 335.21 21.0018 335.21 26.5518C335.21 32.1018 337.985 36.0768 342.785 37.8768ZM361.973 24.6393H378.698V37.0518C377.236 37.8393 375.136 38.5143 372.398 39.1518C369.661 39.7518 367.186 40.0518 364.973 40.0518C352.336 40.0518 345.773 34.9893 345.773 26.5518C345.773 18.1143 352.336 13.0518 364.973 13.0518C369.136 13.0518 373.111 13.6893 376.898 14.9643V20.4018C373.936 18.9393 370.186 18.2268 365.648 18.2268C358.111 18.2268 353.423 21.1143 353.423 26.5518C353.423 32.0643 357.961 34.9893 365.573 34.9893C367.561 34.9893 369.398 34.5768 371.123 33.7893V29.0268H361.973V24.6393ZM383.79 39.6768V13.4268H391.365V34.4643H413.265V39.6768H383.79ZM417.078 39.6768V13.4268H436.953C444.266 13.4268 447.941 15.6768 447.941 20.1768C447.941 23.0643 446.366 25.0143 443.216 26.0268V26.2143C447.191 27.1143 449.178 29.2518 449.178 32.6643C449.178 37.3518 445.503 39.6768 438.191 39.6768H417.078ZM424.653 34.9143H436.316C439.316 34.9143 441.228 33.7893 441.228 31.5768C441.228 29.3643 439.316 28.2018 436.316 28.2018H424.653V34.9143ZM435.078 18.1893H424.653V24.2643H435.078C438.078 24.2643 439.991 23.1768 439.991 21.2268C439.991 19.2393 438.078 18.1893 435.078 18.1893ZM454.397 42.6393L452.072 37.8768C456.872 36.0768 459.647 32.1018 459.647 26.5518C459.647 21.0018 456.872 17.0268 452.072 15.2268L454.397 10.4643C462.534 12.7518 467.297 18.4518 467.297 26.5518C467.297 34.6518 462.534 40.3518 454.397 42.6393Z" fill="white"/>
</svg>
