<svg width="469" height="53" viewBox="0 0 469 53" fill="none" xmlns="http://www.w3.org/2000/svg">
<path d="M27.4815 21.6429L3.06663 12.8593M27.4815 21.6429L51.9038 12.8883M27.4815 21.6429V50.8044M8.68086 44.5002L24.5648 50.1064C25.6458 50.4879 26.1861 50.6785 26.7404 50.7543C27.2322 50.8214 27.7307 50.8214 28.2225 50.7543C28.7768 50.6785 29.3171 50.4879 30.3981 50.1064L46.282 44.5002C48.3872 43.7572 49.4396 43.3858 50.2168 42.7195C50.9029 42.1313 51.4331 41.3823 51.7595 40.5393C52.1289 39.5849 52.1289 38.4686 52.1289 36.2361V16.7402C52.1289 14.5078 52.1289 13.3916 51.7595 12.4372C51.4331 11.5943 50.9029 10.8452 50.2168 10.2569C49.4396 9.59074 48.3872 9.21924 46.282 8.47626L30.3981 2.87017C29.3171 2.48868 28.7768 2.29793 28.2225 2.22224C27.7307 2.15509 27.2322 2.15509 26.7404 2.22224C26.1861 2.29793 25.6458 2.48868 24.5648 2.87017L8.68086 8.47626C6.57572 9.21924 5.52316 9.59074 4.74619 10.2569C4.05995 10.8452 3.52997 11.5943 3.20356 12.4372C2.83398 13.3916 2.83398 14.5078 2.83398 16.7402V36.2361C2.83398 38.4686 2.83398 39.5849 3.20356 40.5393C3.52997 41.3823 4.05995 42.1313 4.74619 42.7195C5.52316 43.3858 6.57572 43.7572 8.68086 44.5002Z" stroke="black" stroke-width="4.31303" stroke-linecap="round" stroke-linejoin="round"/>
<path d="M95.9826 25.6094V25.8344C100.52 26.9969 102.77 29.0969 102.77 32.2094C102.77 34.8344 101.27 36.7844 98.2701 38.0969C95.2701 39.4094 91.1826 40.0469 85.9701 40.0469C84.1326 40.0469 81.9951 39.9344 79.5576 39.7469C77.1201 39.5594 75.3951 39.2969 74.3076 39.0344V33.8594C75.2826 34.1969 76.8951 34.4969 79.1076 34.7969C81.3201 35.0594 83.3076 35.2094 84.9951 35.2094C91.4076 35.2094 95.1576 33.7469 95.1576 31.4969C95.1951 29.2469 92.1951 28.0844 86.6076 27.9719C83.5701 27.9344 80.9826 28.0094 78.7701 28.2344V24.0344H80.5326C81.6201 23.9969 82.6701 23.9969 83.7201 23.9969H85.2951C90.6576 23.9969 93.9576 22.9094 93.9576 20.8094C93.9576 18.6719 91.1076 17.8469 85.1451 17.8469C83.7576 17.8469 82.0326 17.9594 79.9701 18.2219C77.9076 18.4469 76.4076 18.6719 75.5076 18.8969V13.9094C76.4826 13.7219 78.0951 13.5344 80.3826 13.3469C82.6701 13.1594 84.5451 13.0469 85.9701 13.0469C96.2826 13.0469 101.458 15.2969 101.458 19.7969C101.458 22.3844 99.4326 24.4469 95.9826 25.6094ZM107.899 39.6719V13.4219H124.249C129.612 13.4219 133.699 14.5844 136.549 16.9094C139.399 19.2344 140.824 22.4594 140.824 26.5469C140.824 30.6344 139.399 33.8594 136.549 36.1844C133.699 38.5094 129.612 39.6719 124.249 39.6719H107.899ZM123.874 18.5969H115.474V34.4969H123.874C129.687 34.4969 133.174 31.7594 133.174 26.5469C133.174 21.3344 129.724 18.5969 123.874 18.5969ZM179.671 32.0594L189.534 13.4219H199.584V39.6719H192.084V22.6469H191.896L182.784 39.6719H176.371L167.259 22.6469H167.071V39.6719H159.571V13.4219H169.584L179.484 32.0594H179.671ZM218.744 24.0719C214.844 24.0719 212.106 26.0969 212.106 29.6969C212.106 33.2969 214.844 35.3219 218.744 35.3219C222.681 35.3219 225.419 33.2969 225.419 29.6969C225.419 26.0969 222.681 24.0719 218.744 24.0719ZM232.881 29.6969C232.881 32.9219 231.644 35.4719 229.131 37.3094C226.619 39.1469 223.169 40.0469 218.781 40.0469C214.394 40.0469 210.906 39.1094 208.394 37.2719C205.881 35.4344 204.644 32.8844 204.644 29.6969C204.644 26.5094 205.881 23.9594 208.394 22.1219C210.906 20.2844 214.394 19.3469 218.781 19.3469C223.169 19.3469 226.619 20.2844 229.131 22.1219C231.644 23.9594 232.881 26.5094 232.881 29.6969ZM248.103 19.3469C252.191 19.3469 255.266 20.4719 257.366 22.6844H257.553V12.2969H264.978V39.6719H258.303L257.816 36.2594H257.628C255.416 38.7719 252.266 40.0469 248.103 40.0469C244.316 40.0469 241.353 39.1094 239.216 37.2344C237.078 35.3219 236.028 32.8094 236.028 29.6219C236.028 26.4719 237.078 23.9594 239.216 22.1219C241.353 20.2844 244.316 19.3469 248.103 19.3469ZM250.503 35.3219C254.591 35.3219 257.478 33.1094 257.478 29.6219C257.478 26.1719 254.591 24.0719 250.503 24.0719C246.266 24.0719 243.491 26.1344 243.491 29.6219C243.491 33.1844 246.266 35.3219 250.503 35.3219ZM297.438 29.4344V31.4594H277.413C277.976 34.0469 280.901 35.3219 286.151 35.3219C287.838 35.3219 289.638 35.1719 291.513 34.8344C293.388 34.4969 294.888 34.1219 295.976 33.7094V38.6969C294.663 39.1094 292.863 39.4094 290.501 39.6719C288.176 39.9344 286.038 40.0469 284.126 40.0469C274.863 40.0469 269.463 36.2969 269.463 29.6969C269.463 26.5844 270.701 24.0719 273.176 22.1969C275.688 20.2844 279.101 19.3469 283.413 19.3469C287.801 19.3469 291.213 20.2469 293.688 22.0469C296.163 23.8469 297.401 26.3219 297.438 29.4344ZM277.376 28.1219H289.563C289.376 25.4594 287.163 23.9594 283.413 23.9594C280.376 23.9594 278.013 25.5344 277.376 28.1219ZM301.834 39.6719V12.2969H309.259V39.6719H301.834ZM342.285 37.8719L339.96 42.6344C331.823 40.3469 327.06 34.6469 327.06 26.5469C327.06 18.4469 331.823 12.7469 339.96 10.4594L342.285 15.2219C337.485 17.0219 334.71 20.9969 334.71 26.5469C334.71 32.0969 337.485 36.0719 342.285 37.8719ZM361.473 24.6344H378.198V37.0469C376.736 37.8344 374.636 38.5094 371.898 39.1469C369.161 39.7469 366.686 40.0469 364.473 40.0469C351.836 40.0469 345.273 34.9844 345.273 26.5469C345.273 18.1094 351.836 13.0469 364.473 13.0469C368.636 13.0469 372.611 13.6844 376.398 14.9594V20.3969C373.436 18.9344 369.686 18.2219 365.148 18.2219C357.611 18.2219 352.923 21.1094 352.923 26.5469C352.923 32.0594 357.461 34.9844 365.073 34.9844C367.061 34.9844 368.898 34.5719 370.623 33.7844V29.0219H361.473V24.6344ZM383.29 39.6719V13.4219H390.865V34.4594H412.765V39.6719H383.29ZM416.578 39.6719V13.4219H436.453C443.766 13.4219 447.441 15.6719 447.441 20.1719C447.441 23.0594 445.866 25.0094 442.716 26.0219V26.2094C446.691 27.1094 448.678 29.2469 448.678 32.6594C448.678 37.3469 445.003 39.6719 437.691 39.6719H416.578ZM424.153 34.9094H435.816C438.816 34.9094 440.728 33.7844 440.728 31.5719C440.728 29.3594 438.816 28.1969 435.816 28.1969H424.153V34.9094ZM434.578 18.1844H424.153V24.2594H434.578C437.578 24.2594 439.491 23.1719 439.491 21.2219C439.491 19.2344 437.578 18.1844 434.578 18.1844ZM453.897 42.6344L451.572 37.8719C456.372 36.0719 459.147 32.0969 459.147 26.5469C459.147 20.9969 456.372 17.0219 451.572 15.2219L453.897 10.4594C462.034 12.7469 466.797 18.4469 466.797 26.5469C466.797 34.6469 462.034 40.3469 453.897 42.6344Z" fill="black"/>
</svg>
