<svg width="109" height="109" viewBox="0 0 109 109" fill="none" xmlns="http://www.w3.org/2000/svg">
<g filter="url(#filter0_b_1063_467)">
<circle cx="54.834" cy="54.8818" r="53.9229" fill="url(#paint0_radial_1063_467)"/>
<circle cx="54.834" cy="54.8818" r="52.4229" stroke="url(#paint1_radial_1063_467)" stroke-width="3"/>
<circle cx="54.834" cy="54.8818" r="52.4229" stroke="url(#paint2_radial_1063_467)" stroke-width="3"/>
<circle cx="54.834" cy="54.8818" r="52.4229" stroke="url(#paint3_linear_1063_467)" stroke-width="3"/>
</g>
<path d="M41.1732 35.9673C40.7375 35.9673 40.3014 36.1332 39.9693 36.4661L36.5638 39.8717C35.898 40.5374 35.898 41.6154 36.5638 42.2795L48.982 54.6977L36.5638 67.1159C35.898 67.7817 35.898 68.8596 36.5638 69.5237L39.9693 72.9292C40.6351 73.595 41.7131 73.595 42.3771 72.9292L54.7953 60.511L67.2135 72.9292C67.8776 73.595 68.9573 73.595 69.6214 72.9292L73.0269 69.5237C73.6927 68.8579 73.6927 67.78 73.0269 67.1159L60.6087 54.6977L73.0269 42.2795C73.6927 41.6154 73.6927 40.5357 73.0269 39.8717L69.6214 36.4661C68.9556 35.8004 67.8776 35.8004 67.2135 36.4661L54.7953 48.8843L42.3771 36.4661C42.0442 36.1332 41.6089 35.9673 41.1732 35.9673Z" fill="white"/>
<defs>
<filter id="filter0_b_1063_467" x="-20.0889" y="-20.041" width="149.846" height="149.846" filterUnits="userSpaceOnUse" color-interpolation-filters="sRGB">
<feFlood flood-opacity="0" result="BackgroundImageFix"/>
<feGaussianBlur in="BackgroundImageFix" stdDeviation="10.5"/>
<feComposite in2="SourceAlpha" operator="in" result="effect1_backgroundBlur_1063_467"/>
<feBlend mode="normal" in="SourceGraphic" in2="effect1_backgroundBlur_1063_467" result="shape"/>
</filter>
<radialGradient id="paint0_radial_1063_467" cx="0" cy="0" r="1" gradientUnits="userSpaceOnUse" gradientTransform="translate(1.88118 4.16761) rotate(44.0741) scale(146.457 234.238)">
<stop stop-color="#1E1E1E"/>
<stop offset="1" stop-color="#1E1E1E" stop-opacity="0.59"/>
</radialGradient>
<radialGradient id="paint1_radial_1063_467" cx="0" cy="0" r="1" gradientUnits="userSpaceOnUse" gradientTransform="translate(1.88118 4.16761) rotate(44.0741) scale(146.457 234.238)">
<stop stop-color="white" stop-opacity="0"/>
<stop offset="1" stop-color="white"/>
</radialGradient>
<radialGradient id="paint2_radial_1063_467" cx="0" cy="0" r="1" gradientUnits="userSpaceOnUse" gradientTransform="translate(2.39472 105.507) rotate(-44.0635) scale(145.716 232.807)">
<stop stop-color="white" stop-opacity="0"/>
<stop offset="1" stop-color="white"/>
</radialGradient>
<linearGradient id="paint3_linear_1063_467" x1="2.90828" y1="3.90023" x2="127.709" y2="60.9193" gradientUnits="userSpaceOnUse">
<stop stop-color="white" stop-opacity="0.9"/>
<stop offset="1" stop-color="white" stop-opacity="0"/>
</linearGradient>
</defs>
</svg>
