<svg width="418" height="51" viewBox="0 0 418 51" fill="none" xmlns="http://www.w3.org/2000/svg">
<path d="M5.51963 35.3174C5.51963 33.961 4.41998 32.8613 3.06352 32.8613C1.70707 32.8613 0.607422 33.961 0.607422 35.3174H5.51963ZM50.2207 35.3174C50.2207 33.961 49.121 32.8613 47.7646 32.8613C46.4082 32.8613 45.3085 33.961 45.3085 35.3174H50.2207ZM23.4773 37.0816C22.6432 38.1511 22.8338 39.6945 23.9034 40.5289C24.9729 41.363 26.5164 41.1724 27.3508 40.1029L23.4773 37.0816ZM40.1225 23.7289C40.9566 22.6593 40.766 21.1159 39.6965 20.2815C38.6269 19.4474 37.0835 19.638 36.2491 20.7075L40.1225 23.7289ZM23.4773 40.1029C24.3118 41.1724 25.8552 41.363 26.9247 40.5289C27.9943 39.6945 28.1849 38.1511 27.3508 37.0816L23.4773 40.1029ZM14.579 20.7075C13.7447 19.638 12.2013 19.4474 11.1318 20.2815C10.0622 21.1159 9.87141 22.6593 10.7057 23.7289L14.579 20.7075ZM22.958 38.5922C22.958 39.9486 24.0576 41.0483 25.4141 41.0483C26.7705 41.0483 27.8702 39.9486 27.8702 38.5922H22.958ZM27.8702 2.56938C27.8702 1.21293 26.7705 0.113281 25.4141 0.113281C24.0576 0.113281 22.958 1.21293 22.958 2.56938H27.8702ZM0.607422 35.3174V38.5922H5.51963V35.3174H0.607422ZM0.607422 38.5922C0.607422 45.3157 5.93739 50.8727 12.6423 50.8727V45.9605C8.76682 45.9605 5.51963 42.7208 5.51963 38.5922H0.607422ZM12.6423 50.8727H38.1858V45.9605H12.6423V50.8727ZM38.1858 50.8727C44.8906 50.8727 50.2207 45.3157 50.2207 38.5922H45.3085C45.3085 42.7208 42.0612 45.9605 38.1858 45.9605V50.8727ZM50.2207 38.5922V35.3174H45.3085V38.5922H50.2207ZM27.3508 40.1029L40.1225 23.7289L36.2491 20.7075L23.4773 37.0816L27.3508 40.1029ZM27.3508 37.0816L14.579 20.7075L10.7057 23.7289L23.4773 40.1029L27.3508 37.0816ZM27.8702 38.5922V2.56938H22.958V38.5922H27.8702Z" fill="white"/>
<path d="M88.1816 38.168V11.918H104.532C109.894 11.918 113.982 13.0805 116.832 15.4055C119.682 17.7305 121.107 20.9555 121.107 25.043C121.107 29.1305 119.682 32.3555 116.832 34.6805C113.982 37.0055 109.894 38.168 104.532 38.168H88.1816ZM104.157 17.093H95.7566V32.993H104.157C109.969 32.993 113.457 30.2555 113.457 25.043C113.457 19.8305 110.007 17.093 104.157 17.093ZM138.528 22.568C134.628 22.568 131.891 24.593 131.891 28.193C131.891 31.793 134.628 33.818 138.528 33.818C142.466 33.818 145.203 31.793 145.203 28.193C145.203 24.593 142.466 22.568 138.528 22.568ZM152.666 28.193C152.666 31.418 151.428 33.968 148.916 35.8055C146.403 37.643 142.953 38.543 138.566 38.543C134.178 38.543 130.691 37.6055 128.178 35.768C125.666 33.9305 124.428 31.3805 124.428 28.193C124.428 25.0055 125.666 22.4555 128.178 20.618C130.691 18.7805 134.178 17.843 138.566 17.843C142.953 17.843 146.403 18.7805 148.916 20.618C151.428 22.4555 152.666 25.0055 152.666 28.193ZM182.706 31.5305L187.394 18.218H195.081L187.619 38.168H178.994L174.194 26.4305H174.006L169.206 38.168H160.581L153.119 18.218H160.806L165.494 31.5305H165.681L170.744 18.218H177.456L182.519 31.5305H182.706ZM215.902 17.843C223.29 17.843 227.565 21.7055 227.565 28.043V38.168H220.102V28.043C220.102 24.5555 217.402 22.568 213.09 22.568C208.852 22.568 206.152 24.518 206.152 28.0055V38.168H198.727V18.218H205.402L205.852 21.3305H206.04C208.177 19.0055 211.44 17.843 215.902 17.843ZM233.337 38.168V10.793H240.762V38.168H233.337ZM259.488 22.568C255.588 22.568 252.85 24.593 252.85 28.193C252.85 31.793 255.588 33.818 259.488 33.818C263.425 33.818 266.163 31.793 266.163 28.193C266.163 24.593 263.425 22.568 259.488 22.568ZM273.625 28.193C273.625 31.418 272.388 33.968 269.875 35.8055C267.363 37.643 263.913 38.543 259.525 38.543C255.138 38.543 251.65 37.6055 249.138 35.768C246.625 33.9305 245.388 31.3805 245.388 28.193C245.388 25.0055 246.625 22.4555 249.138 20.618C251.65 18.7805 255.138 17.843 259.525 17.843C263.913 17.843 267.363 18.7805 269.875 20.618C272.388 22.4555 273.625 25.0055 273.625 28.193ZM289.222 17.843C298.447 17.843 303.06 20.5055 303.06 25.868V38.168H296.647L296.085 35.5055H295.897C294.06 37.5305 290.947 38.543 286.485 38.543C280.222 38.543 276.36 36.143 276.36 31.9805C276.36 27.743 280.447 25.6055 287.76 25.6055C290.647 25.6055 293.235 25.9805 295.522 26.7305V26.4305C295.522 23.993 293.085 22.7555 288.247 22.7555C286.41 22.7555 284.497 22.943 282.51 23.3555C280.56 23.768 279.135 24.1805 278.272 24.668V19.3805C279.06 19.043 280.635 18.7055 283.035 18.368C285.435 18.0305 287.497 17.843 289.222 17.843ZM295.485 30.068V29.7305C293.647 29.093 291.847 28.793 290.01 28.793C285.847 28.793 283.785 29.7305 283.785 31.568C283.785 33.4055 285.435 34.343 288.772 34.343C293.385 34.343 295.485 32.6555 295.485 30.068ZM319.462 17.843C323.55 17.843 326.625 18.968 328.725 21.1805H328.912V10.793H336.337V38.168H329.662L329.175 34.7555H328.987C326.775 37.268 323.625 38.543 319.462 38.543C315.675 38.543 312.712 37.6055 310.575 35.7305C308.437 33.818 307.387 31.3055 307.387 28.118C307.387 24.968 308.437 22.4555 310.575 20.618C312.712 18.7805 315.675 17.843 319.462 17.843ZM321.862 33.818C325.95 33.818 328.837 31.6055 328.837 28.118C328.837 24.668 325.95 22.568 321.862 22.568C317.625 22.568 314.85 24.6305 314.85 28.118C314.85 31.6805 317.625 33.818 321.862 33.818Z" fill="white"/>
<path d="M373.721 6.11621L373.721 44.8701" stroke="white" stroke-width="2" stroke-linecap="round"/>
<path d="M404.523 33.8146C404.631 33.9715 404.776 34.0997 404.944 34.1883C405.113 34.2769 405.3 34.3232 405.491 34.3232C405.681 34.3232 405.869 34.2769 406.037 34.1883C406.206 34.0997 406.351 33.9715 406.459 33.8146L417.054 18.5102C417.177 18.3337 417.248 18.1269 417.262 17.9124C417.275 17.6979 417.23 17.4838 417.13 17.2934C417.03 17.103 416.88 16.9436 416.696 16.8324C416.512 16.7213 416.301 16.6627 416.086 16.6631H394.895C394.681 16.664 394.471 16.7233 394.288 16.8347C394.104 16.9461 393.955 17.1053 393.855 17.2953C393.756 17.4852 393.71 17.6987 393.723 17.9128C393.736 18.1269 393.806 18.3334 393.928 18.5102L404.523 33.8146Z" fill="white"/>
</svg>
