<svg width="418" height="51" viewBox="0 0 418 51" fill="none" xmlns="http://www.w3.org/2000/svg">
<path d="M5.51963 35.3145C5.51963 33.9581 4.41998 32.8584 3.06352 32.8584C1.70707 32.8584 0.607422 33.9581 0.607422 35.3145H5.51963ZM50.2207 35.3145C50.2207 33.9581 49.121 32.8584 47.7646 32.8584C46.4082 32.8584 45.3085 33.9581 45.3085 35.3145H50.2207ZM23.4773 37.0786C22.6432 38.1482 22.8338 39.6916 23.9034 40.526C24.9729 41.3601 26.5164 41.1695 27.3508 40.1L23.4773 37.0786ZM40.1225 23.7259C40.9566 22.6564 40.766 21.113 39.6965 20.2786C38.6269 19.4445 37.0835 19.6351 36.2491 20.7046L40.1225 23.7259ZM23.4773 40.1C24.3118 41.1695 25.8552 41.3601 26.9247 40.526C27.9943 39.6916 28.1849 38.1482 27.3508 37.0786L23.4773 40.1ZM14.579 20.7046C13.7447 19.6351 12.2013 19.4445 11.1318 20.2786C10.0622 21.113 9.87141 22.6564 10.7057 23.7259L14.579 20.7046ZM22.958 38.5893C22.958 39.9457 24.0576 41.0454 25.4141 41.0454C26.7705 41.0454 27.8702 39.9457 27.8702 38.5893H22.958ZM27.8702 2.56645C27.8702 1.21 26.7705 0.110352 25.4141 0.110352C24.0576 0.110352 22.958 1.21 22.958 2.56645H27.8702ZM0.607422 35.3145V38.5893H5.51963V35.3145H0.607422ZM0.607422 38.5893C0.607422 45.3128 5.93739 50.8698 12.6423 50.8698V45.9576C8.76682 45.9576 5.51963 42.7178 5.51963 38.5893H0.607422ZM12.6423 50.8698H38.1858V45.9576H12.6423V50.8698ZM38.1858 50.8698C44.8906 50.8698 50.2207 45.3128 50.2207 38.5893H45.3085C45.3085 42.7178 42.0612 45.9576 38.1858 45.9576V50.8698ZM50.2207 38.5893V35.3145H45.3085V38.5893H50.2207ZM27.3508 40.1L40.1225 23.7259L36.2491 20.7046L23.4773 37.0786L27.3508 40.1ZM27.3508 37.0786L14.579 20.7046L10.7057 23.7259L23.4773 40.1L27.3508 37.0786ZM27.8702 38.5893V2.56645H22.958V38.5893H27.8702Z" fill="#1E1E1E"/>
<path d="M88.1816 38.165V11.915H104.532C109.894 11.915 113.982 13.0775 116.832 15.4025C119.682 17.7275 121.107 20.9525 121.107 25.04C121.107 29.1275 119.682 32.3525 116.832 34.6775C113.982 37.0025 109.894 38.165 104.532 38.165H88.1816ZM104.157 17.09H95.7566V32.99H104.157C109.969 32.99 113.457 30.2525 113.457 25.04C113.457 19.8275 110.007 17.09 104.157 17.09ZM138.528 22.565C134.628 22.565 131.891 24.59 131.891 28.19C131.891 31.79 134.628 33.815 138.528 33.815C142.466 33.815 145.203 31.79 145.203 28.19C145.203 24.59 142.466 22.565 138.528 22.565ZM152.666 28.19C152.666 31.415 151.428 33.965 148.916 35.8025C146.403 37.64 142.953 38.54 138.566 38.54C134.178 38.54 130.691 37.6025 128.178 35.765C125.666 33.9275 124.428 31.3775 124.428 28.19C124.428 25.0025 125.666 22.4525 128.178 20.615C130.691 18.7775 134.178 17.84 138.566 17.84C142.953 17.84 146.403 18.7775 148.916 20.615C151.428 22.4525 152.666 25.0025 152.666 28.19ZM182.706 31.5275L187.394 18.215H195.081L187.619 38.165H178.994L174.194 26.4275H174.006L169.206 38.165H160.581L153.119 18.215H160.806L165.494 31.5275H165.681L170.744 18.215H177.456L182.519 31.5275H182.706ZM215.902 17.84C223.29 17.84 227.565 21.7025 227.565 28.04V38.165H220.102V28.04C220.102 24.5525 217.402 22.565 213.09 22.565C208.852 22.565 206.152 24.515 206.152 28.0025V38.165H198.727V18.215H205.402L205.852 21.3275H206.04C208.177 19.0025 211.44 17.84 215.902 17.84ZM233.337 38.165V10.79H240.762V38.165H233.337ZM259.488 22.565C255.588 22.565 252.85 24.59 252.85 28.19C252.85 31.79 255.588 33.815 259.488 33.815C263.425 33.815 266.163 31.79 266.163 28.19C266.163 24.59 263.425 22.565 259.488 22.565ZM273.625 28.19C273.625 31.415 272.388 33.965 269.875 35.8025C267.363 37.64 263.913 38.54 259.525 38.54C255.138 38.54 251.65 37.6025 249.138 35.765C246.625 33.9275 245.388 31.3775 245.388 28.19C245.388 25.0025 246.625 22.4525 249.138 20.615C251.65 18.7775 255.138 17.84 259.525 17.84C263.913 17.84 267.363 18.7775 269.875 20.615C272.388 22.4525 273.625 25.0025 273.625 28.19ZM289.222 17.84C298.447 17.84 303.06 20.5025 303.06 25.865V38.165H296.647L296.085 35.5025H295.897C294.06 37.5275 290.947 38.54 286.485 38.54C280.222 38.54 276.36 36.14 276.36 31.9775C276.36 27.74 280.447 25.6025 287.76 25.6025C290.647 25.6025 293.235 25.9775 295.522 26.7275V26.4275C295.522 23.99 293.085 22.7525 288.247 22.7525C286.41 22.7525 284.497 22.94 282.51 23.3525C280.56 23.765 279.135 24.1775 278.272 24.665V19.3775C279.06 19.04 280.635 18.7025 283.035 18.365C285.435 18.0275 287.497 17.84 289.222 17.84ZM295.485 30.065V29.7275C293.647 29.09 291.847 28.79 290.01 28.79C285.847 28.79 283.785 29.7275 283.785 31.565C283.785 33.4025 285.435 34.34 288.772 34.34C293.385 34.34 295.485 32.6525 295.485 30.065ZM319.462 17.84C323.55 17.84 326.625 18.965 328.725 21.1775H328.912V10.79H336.337V38.165H329.662L329.175 34.7525H328.987C326.775 37.265 323.625 38.54 319.462 38.54C315.675 38.54 312.712 37.6025 310.575 35.7275C308.437 33.815 307.387 31.3025 307.387 28.115C307.387 24.965 308.437 22.4525 310.575 20.615C312.712 18.7775 315.675 17.84 319.462 17.84ZM321.862 33.815C325.95 33.815 328.837 31.6025 328.837 28.115C328.837 24.665 325.95 22.565 321.862 22.565C317.625 22.565 314.85 24.6275 314.85 28.115C314.85 31.6775 317.625 33.815 321.862 33.815Z" fill="#1E1E1E"/>
<path d="M373.721 6.11328L373.721 44.8672" stroke="#1E1E1E" stroke-width="2" stroke-linecap="round"/>
<path d="M404.523 33.8117C404.631 33.9686 404.776 34.0968 404.944 34.1854C405.113 34.274 405.3 34.3203 405.491 34.3203C405.681 34.3203 405.869 34.274 406.037 34.1854C406.206 34.0968 406.351 33.9686 406.459 33.8117L417.054 18.5073C417.177 18.3308 417.248 18.124 417.262 17.9095C417.275 17.6949 417.23 17.4809 417.13 17.2905C417.03 17.1001 416.88 16.9406 416.696 16.8295C416.512 16.7184 416.301 16.6598 416.086 16.6602H394.895C394.681 16.661 394.471 16.7204 394.288 16.8318C394.104 16.9431 393.955 17.1024 393.855 17.2923C393.756 17.4823 393.71 17.6958 393.723 17.9099C393.736 18.1239 393.806 18.3305 393.928 18.5073L404.523 33.8117Z" fill="#1E1E1E"/>
</svg>
