<svg width="524" height="269" viewBox="0 0 524 269" fill="none" xmlns="http://www.w3.org/2000/svg">
<rect x="0.296875" y="0.898926" width="523.354" height="267.914" rx="25.4247" fill="#1E1E1E"/>
<path d="M477.372 74.563L44.1822 74.563" stroke="white" stroke-width="1.67597" stroke-linecap="round"/>
<path d="M477.372 125.932L44.1822 125.932" stroke="white" stroke-width="1.67597" stroke-linecap="round"/>
<path d="M477.372 177.299L44.1822 177.299" stroke="white" stroke-width="1.67597" stroke-linecap="round"/>
<path d="M477.372 228.668L44.1822 228.669" stroke="white" stroke-width="1.67597" stroke-linecap="round"/>
<path d="M47.4089 45.5072H40.6827V42.4011H58.6491V45.5072H51.9228V58.0435H47.4089V45.5072ZM64.8683 48.6133H64.98C66.075 46.8256 68.0191 45.9318 70.7901 45.9318V49.4178C68.7789 49.1943 65.0471 50.0435 65.0024 52.9038V58.0435H60.5778V46.1553H64.5555L64.8683 48.6133ZM79.1947 45.9318C84.6919 45.9318 87.4405 47.5184 87.4405 50.7139V58.0435H83.6192L83.2841 56.4569H83.1723C82.0774 57.6636 80.2226 58.2669 77.5634 58.2669C73.8316 58.2669 71.5299 56.8368 71.5299 54.3563C71.5299 51.8312 73.9657 50.5575 78.3232 50.5575C80.0438 50.5575 81.5857 50.7809 82.9489 51.2279V51.0491C82.9489 49.5966 81.4964 48.8591 78.6137 48.8591C77.5187 48.8591 76.3791 48.9709 75.1947 49.2167C74.0327 49.4625 73.1835 49.7083 72.6696 49.9988V46.848C73.1389 46.6469 74.0774 46.4458 75.5076 46.2446C76.9377 46.0435 78.1668 45.9318 79.1947 45.9318ZM82.9265 53.2167V53.0156C81.8315 52.6357 80.7589 52.4569 79.664 52.4569C77.1835 52.4569 75.9545 53.0156 75.9545 54.1105C75.9545 55.2055 76.9377 55.7641 78.9265 55.7641C81.6751 55.7641 82.9265 54.7586 82.9265 53.2167ZM101.058 45.9318C105.461 45.9318 108.008 48.2335 108.008 52.01V58.0435H103.561V52.01C103.561 49.9318 101.952 48.7474 99.3824 48.7474C96.8573 48.7474 95.2484 49.9094 95.2484 51.9876V58.0435H90.8238V46.1553H94.8015L95.0696 48.01H95.1813C96.4551 46.6245 98.3992 45.9318 101.058 45.9318ZM118.42 50.4904C123.09 50.7362 125.638 51.7865 125.638 54.1999C125.638 56.9038 123.135 58.2669 118.107 58.2669C115.291 58.2669 112.677 57.9541 110.286 57.306V54.4681C112.811 55.2502 115.403 55.6301 118.107 55.6301C120.23 55.6301 121.302 55.2949 121.302 54.6245C121.302 53.8424 120.341 53.6412 117.66 53.4625C115.492 53.3507 113.906 53.0602 112.498 52.5239C111.135 51.9653 110.375 51.0267 110.375 49.753C110.375 47.3619 113.168 45.9318 117.928 45.9318C120.364 45.9318 122.487 46.1553 124.274 46.6022V49.3284C122.442 48.8145 120.453 48.5463 118.308 48.5463C115.872 48.5463 114.666 48.8591 114.666 49.4625C114.666 50.1776 115.626 50.3117 117.928 50.4681C118.152 50.4904 118.308 50.4904 118.42 50.4904ZM138.087 58.2669C135.674 58.2669 133.841 57.6189 132.567 56.3004H132.456V62.5351H128.031V46.1553H132.009L132.299 48.0547H132.411C133.662 46.6469 135.562 45.9318 138.087 45.9318C140.344 45.9318 142.109 46.4904 143.383 47.5854C144.657 48.6804 145.282 50.1776 145.282 52.077C145.282 53.9541 144.657 55.4513 143.383 56.591C142.109 57.7083 140.344 58.2669 138.087 58.2669ZM136.657 48.7474C134.221 48.7474 132.5 50.0212 132.5 52.077C132.5 54.1552 134.221 55.4513 136.657 55.4513C139.182 55.4513 140.836 54.2222 140.836 52.0994C140.836 49.9765 139.182 48.7474 136.657 48.7474ZM154.57 45.9318C160.067 45.9318 162.815 47.5184 162.815 50.7139V58.0435H158.994L158.659 56.4569H158.547C157.452 57.6636 155.598 58.2669 152.938 58.2669C149.207 58.2669 146.905 56.8368 146.905 54.3563C146.905 51.8312 149.341 50.5575 153.698 50.5575C155.419 50.5575 156.961 50.7809 158.324 51.2279V51.0491C158.324 49.5966 156.871 48.8591 153.989 48.8591C152.894 48.8591 151.754 48.9709 150.57 49.2167C149.408 49.4625 148.558 49.7083 148.045 49.9988V46.848C148.514 46.6469 149.452 46.4458 150.883 46.2446C152.313 46.0435 153.542 45.9318 154.57 45.9318ZM158.301 53.2167V53.0156C157.206 52.6357 156.134 52.4569 155.039 52.4569C152.558 52.4569 151.329 53.0156 151.329 54.1105C151.329 55.2055 152.313 55.7641 154.301 55.7641C157.05 55.7641 158.301 54.7586 158.301 53.2167ZM170.489 48.6133H170.601C171.696 46.8256 173.64 45.9318 176.411 45.9318V49.4178C174.4 49.1943 170.668 50.0435 170.623 52.9038V58.0435H166.199V46.1553H170.176L170.489 48.6133ZM194.067 51.9429V53.1496H182.134C182.469 54.6915 184.212 55.4513 187.341 55.4513C188.346 55.4513 189.419 55.3619 190.536 55.1608C191.654 54.9597 192.547 54.7362 193.195 54.4904V57.4625C192.413 57.7083 191.341 57.887 189.933 58.0435C188.547 58.1999 187.274 58.2669 186.134 58.2669C180.615 58.2669 177.397 56.0323 177.397 52.0994C177.397 50.2446 178.134 48.7474 179.609 47.6301C181.106 46.4904 183.14 45.9318 185.709 45.9318C188.324 45.9318 190.357 46.4681 191.832 47.5407C193.307 48.6133 194.045 50.0882 194.067 51.9429ZM182.112 51.1608H189.374C189.263 49.5742 187.944 48.6804 185.709 48.6804C183.899 48.6804 182.492 49.6189 182.112 51.1608ZM206.854 45.9318C211.256 45.9318 213.804 48.2335 213.804 52.01V58.0435H209.357V52.01C209.357 49.9318 207.748 48.7474 205.178 48.7474C202.653 48.7474 201.044 49.9094 201.044 51.9876V58.0435H196.619V46.1553H200.597L200.865 48.01H200.977C202.251 46.6245 204.195 45.9318 206.854 45.9318ZM227.589 55.4066L229.824 55.2055V58.0881C228.863 58.1999 228.014 58.2669 227.254 58.2669C225.109 58.2669 223.657 58.1105 222.293 57.6412C220.349 56.9261 219.321 55.3396 219.321 52.5239V48.8145H215.545V46.1553H219.321V42.4011H223.724V46.1553H229.377V48.8145H223.724V52.3452C223.724 54.5127 224.752 55.4066 227.589 55.4066ZM256.526 52.8591H244.459V58.0435H239.945V42.4011H258.023V45.5072H244.459V49.9094H256.526V52.8591ZM267.07 58.2669C262.668 58.2669 260.12 55.9653 260.12 52.1887V46.1553H264.567V52.1887C264.567 54.2669 266.176 55.4513 268.746 55.4513C271.271 55.4513 272.88 54.2893 272.88 52.2111V46.1553H277.304V58.0435H273.327L273.059 56.1887H272.947C271.673 57.5742 269.729 58.2669 267.07 58.2669ZM280.856 58.0435V41.7307H285.28V58.0435H280.856ZM288.908 58.0435V41.7307H293.333V58.0435H288.908ZM305.281 58.0435V42.4011H317.125C321.482 42.4011 323.672 43.7419 323.672 46.4234C323.672 48.1441 322.734 49.3061 320.857 49.9094V50.0212C323.225 50.5575 324.41 51.8312 324.41 53.8647C324.41 56.658 322.22 58.0435 317.862 58.0435H305.281ZM309.795 55.2055H316.745C318.533 55.2055 319.672 54.5351 319.672 53.2167C319.672 51.8982 318.533 51.2055 316.745 51.2055H309.795V55.2055ZM316.008 45.2391H309.795V48.8591H316.008C317.795 48.8591 318.935 48.2111 318.935 47.0491C318.935 45.8648 317.795 45.2391 316.008 45.2391ZM334.737 48.7474C332.413 48.7474 330.782 49.9541 330.782 52.0994C330.782 54.2446 332.413 55.4513 334.737 55.4513C337.084 55.4513 338.715 54.2446 338.715 52.0994C338.715 49.9541 337.084 48.7474 334.737 48.7474ZM343.162 52.0994C343.162 54.0211 342.425 55.5407 340.927 56.6356C339.43 57.7306 337.374 58.2669 334.76 58.2669C332.145 58.2669 330.067 57.7083 328.57 56.6133C327.073 55.5183 326.335 53.9988 326.335 52.0994C326.335 50.1999 327.073 48.6804 328.57 47.5854C330.067 46.4904 332.145 45.9318 334.76 45.9318C337.374 45.9318 339.43 46.4904 340.927 47.5854C342.425 48.6804 343.162 50.1999 343.162 52.0994ZM352.233 45.9318C354.668 45.9318 356.501 46.6022 357.752 47.9206H357.864V41.7307H362.288V58.0435H358.311L358.02 56.0099H357.909C356.59 57.5071 354.713 58.2669 352.233 58.2669C349.976 58.2669 348.21 57.7083 346.937 56.591C345.663 55.4513 345.037 53.9541 345.037 52.0547C345.037 50.1776 345.663 48.6804 346.937 47.5854C348.21 46.4904 349.976 45.9318 352.233 45.9318ZM353.663 55.4513C356.099 55.4513 357.819 54.1329 357.819 52.0547C357.819 49.9988 356.099 48.7474 353.663 48.7474C351.138 48.7474 349.484 49.9765 349.484 52.0547C349.484 54.1776 351.138 55.4513 353.663 55.4513ZM373.81 53.5295L377.698 46.1553H382.637L373.609 62.5351H369.14L371.732 57.5295L364.246 46.1553H369.207L373.699 53.5295H373.81ZM399.496 56.9708L398.11 59.8088C393.261 58.4457 390.423 55.0491 390.423 50.2223C390.423 45.3955 393.261 41.9988 398.11 40.6357L399.496 43.4737C396.636 44.5463 394.982 46.915 394.982 50.2223C394.982 53.5295 396.636 55.8982 399.496 56.9708ZM412.986 53.5966H406.818V58.0435H402.304V42.4011H412.986C418.55 42.4011 421.03 44.3452 421.03 47.9876C421.03 51.7195 418.349 53.5966 412.986 53.5966ZM412.963 45.4849H406.818V50.4904H412.963C415.198 50.4904 416.517 49.6636 416.517 47.9876C416.517 46.3117 415.198 45.4849 412.963 45.4849ZM438.326 52.2334V42.4011H442.661V58.0435H438.08L428.203 48.2335H428.092V58.0435H423.734V42.4011H428.248L438.214 52.2334H438.326ZM455.448 49.0826H465.414V56.4792C464.543 56.9485 463.291 57.3507 461.66 57.7306C460.029 58.0881 458.554 58.2669 457.236 58.2669C449.705 58.2669 445.794 55.2502 445.794 50.2223C445.794 45.1944 449.705 42.1776 457.236 42.1776C459.716 42.1776 462.085 42.5575 464.342 43.3173V46.5575C462.576 45.686 460.342 45.2614 457.638 45.2614C453.146 45.2614 450.353 46.9821 450.353 50.2223C450.353 53.5072 453.057 55.2502 457.593 55.2502C458.777 55.2502 459.872 55.0044 460.9 54.5351V51.6971H455.448V49.0826ZM468.493 59.8088L467.108 56.9708C469.968 55.8982 471.622 53.5295 471.622 50.2223C471.622 46.915 469.968 44.5463 467.108 43.4737L468.493 40.6357C473.342 41.9988 476.18 45.3955 476.18 50.2223C476.18 55.0491 473.342 58.4457 468.493 59.8088Z" fill="white"/>
<path d="M59.163 106.463H47.096V111.647H42.5821V96.0046H60.6602V99.1107H47.096V103.513H59.163V106.463ZM69.7071 111.87C65.3049 111.87 62.7575 109.569 62.7575 105.792V99.7588H67.2044V105.792C67.2044 107.87 68.8133 109.055 71.3831 109.055C73.9082 109.055 75.5172 107.893 75.5172 105.815V99.7588H79.9417V111.647H75.9641L75.6959 109.792H75.5842C74.3105 111.178 72.3663 111.87 69.7071 111.87ZM83.493 111.647V95.3342H87.9176V111.647H83.493ZM91.5455 111.647V95.3342H95.9701V111.647H91.5455ZM107.919 111.647V96.0046H119.762C124.12 96.0046 126.31 97.3454 126.31 100.027C126.31 101.748 125.371 102.91 123.494 103.513V103.625C125.863 104.161 127.047 105.435 127.047 107.468C127.047 110.262 124.857 111.647 120.5 111.647H107.919ZM112.433 108.809H119.382C121.17 108.809 122.31 108.139 122.31 106.82C122.31 105.502 121.17 104.809 119.382 104.809H112.433V108.809ZM118.645 98.8426H112.433V102.463H118.645C120.433 102.463 121.572 101.815 121.572 100.653C121.572 99.4683 120.433 98.8426 118.645 98.8426ZM137.375 102.351C135.051 102.351 133.419 103.558 133.419 105.703C133.419 107.848 135.051 109.055 137.375 109.055C139.721 109.055 141.352 107.848 141.352 105.703C141.352 103.558 139.721 102.351 137.375 102.351ZM145.799 105.703C145.799 107.625 145.062 109.144 143.565 110.239C142.067 111.334 140.012 111.87 137.397 111.87C134.783 111.87 132.704 111.312 131.207 110.217C129.71 109.122 128.973 107.602 128.973 105.703C128.973 103.803 129.71 102.284 131.207 101.189C132.704 100.094 134.783 99.5353 137.397 99.5353C140.012 99.5353 142.067 100.094 143.565 101.189C145.062 102.284 145.799 103.803 145.799 105.703ZM154.87 99.5353C157.306 99.5353 159.138 100.206 160.389 101.524H160.501V95.3342H164.926V111.647H160.948L160.658 109.613H160.546C159.227 111.111 157.35 111.87 154.87 111.87C152.613 111.87 150.848 111.312 149.574 110.194C148.3 109.055 147.674 107.558 147.674 105.658C147.674 103.781 148.3 102.284 149.574 101.189C150.848 100.094 152.613 99.5353 154.87 99.5353ZM156.3 109.055C158.736 109.055 160.456 107.736 160.456 105.658C160.456 103.602 158.736 102.351 156.3 102.351C153.775 102.351 152.121 103.58 152.121 105.658C152.121 107.781 153.775 109.055 156.3 109.055ZM176.447 107.133L180.336 99.7588H185.274L176.246 116.139H171.777L174.369 111.133L166.883 99.7588H171.844L176.336 107.133H176.447ZM202.133 110.574L200.748 113.412C195.898 112.049 193.061 108.653 193.061 103.826C193.061 98.999 195.898 95.6024 200.748 94.2392L202.133 97.0772C199.273 98.1498 197.619 100.519 197.619 103.826C197.619 107.133 199.273 109.502 202.133 110.574ZM215.623 107.2H209.456V111.647H204.942V96.0046H215.623C221.187 96.0046 223.668 97.9487 223.668 101.591C223.668 105.323 220.986 107.2 215.623 107.2ZM215.601 99.0884H209.456V104.094H215.601C217.835 104.094 219.154 103.267 219.154 101.591C219.154 99.9152 217.835 99.0884 215.601 99.0884ZM240.963 105.837V96.0046H245.299V111.647H240.718L230.841 101.837H230.729V111.647H226.371V96.0046H230.885L240.852 105.837H240.963ZM258.085 102.686H268.052V110.083C267.18 110.552 265.929 110.954 264.297 111.334C262.666 111.692 261.191 111.87 259.873 111.87C252.342 111.87 248.432 108.854 248.432 103.826C248.432 98.7979 252.342 95.7811 259.873 95.7811C262.353 95.7811 264.722 96.161 266.979 96.9208V100.161C265.214 99.2895 262.979 98.8649 260.275 98.8649C255.783 98.8649 252.99 100.586 252.99 103.826C252.99 107.111 255.694 108.854 260.23 108.854C261.415 108.854 262.51 108.608 263.538 108.139V105.301H258.085V102.686ZM271.13 113.412L269.745 110.574C272.605 109.502 274.259 107.133 274.259 103.826C274.259 100.519 272.605 98.1498 269.745 97.0772L271.13 94.2392C275.979 95.6024 278.817 98.999 278.817 103.826C278.817 108.653 275.979 112.049 271.13 113.412Z" fill="white"/>
<path d="M47.4089 152.714H40.6827V149.608H58.6491V152.714H51.9228V165.25H47.4089V152.714ZM64.8683 155.82H64.98C66.075 154.033 68.0191 153.139 70.7901 153.139V156.625C68.7789 156.401 65.0471 157.251 65.0024 160.111V165.25H60.5778V153.362H64.5555L64.8683 155.82ZM79.1947 153.139C84.6919 153.139 87.4405 154.725 87.4405 157.921V165.25H83.6192L83.2841 163.664H83.1723C82.0774 164.871 80.2226 165.474 77.5634 165.474C73.8316 165.474 71.5299 164.044 71.5299 161.563C71.5299 159.038 73.9657 157.764 78.3232 157.764C80.0438 157.764 81.5857 157.988 82.9489 158.435V158.256C82.9489 156.804 81.4964 156.066 78.6137 156.066C77.5187 156.066 76.3791 156.178 75.1947 156.424C74.0327 156.67 73.1835 156.915 72.6696 157.206V154.055C73.1389 153.854 74.0774 153.653 75.5076 153.452C76.9377 153.251 78.1668 153.139 79.1947 153.139ZM82.9265 160.424V160.223C81.8315 159.843 80.7589 159.664 79.664 159.664C77.1835 159.664 75.9545 160.223 75.9545 161.318C75.9545 162.413 76.9377 162.971 78.9265 162.971C81.6751 162.971 82.9265 161.966 82.9265 160.424ZM101.058 153.139C105.461 153.139 108.008 155.44 108.008 159.217V165.25H103.561V159.217C103.561 157.139 101.952 155.954 99.3824 155.954C96.8573 155.954 95.2484 157.116 95.2484 159.195V165.25H90.8238V153.362H94.8015L95.0696 155.217H95.1813C96.4551 153.832 98.3992 153.139 101.058 153.139ZM118.42 157.697C123.09 157.943 125.638 158.994 125.638 161.407C125.638 164.111 123.135 165.474 118.107 165.474C115.291 165.474 112.677 165.161 110.286 164.513V161.675C112.811 162.457 115.403 162.837 118.107 162.837C120.23 162.837 121.302 162.502 121.302 161.832C121.302 161.049 120.341 160.848 117.66 160.67C115.492 160.558 113.906 160.267 112.498 159.731C111.135 159.172 110.375 158.234 110.375 156.96C110.375 154.569 113.168 153.139 117.928 153.139C120.364 153.139 122.487 153.362 124.274 153.809V156.535C122.442 156.021 120.453 155.753 118.308 155.753C115.872 155.753 114.666 156.066 114.666 156.67C114.666 157.385 115.626 157.519 117.928 157.675C118.152 157.697 118.308 157.697 118.42 157.697ZM138.087 165.474C135.674 165.474 133.841 164.826 132.567 163.507H132.456V169.742H128.031V153.362H132.009L132.299 155.262H132.411C133.662 153.854 135.562 153.139 138.087 153.139C140.344 153.139 142.109 153.697 143.383 154.792C144.657 155.887 145.282 157.385 145.282 159.284C145.282 161.161 144.657 162.658 143.383 163.798C142.109 164.915 140.344 165.474 138.087 165.474ZM136.657 155.954C134.221 155.954 132.5 157.228 132.5 159.284C132.5 161.362 134.221 162.658 136.657 162.658C139.182 162.658 140.836 161.429 140.836 159.306C140.836 157.183 139.182 155.954 136.657 155.954ZM154.57 153.139C160.067 153.139 162.815 154.725 162.815 157.921V165.25H158.994L158.659 163.664H158.547C157.452 164.871 155.598 165.474 152.938 165.474C149.207 165.474 146.905 164.044 146.905 161.563C146.905 159.038 149.341 157.764 153.698 157.764C155.419 157.764 156.961 157.988 158.324 158.435V158.256C158.324 156.804 156.871 156.066 153.989 156.066C152.894 156.066 151.754 156.178 150.57 156.424C149.408 156.67 148.558 156.915 148.045 157.206V154.055C148.514 153.854 149.452 153.653 150.883 153.452C152.313 153.251 153.542 153.139 154.57 153.139ZM158.301 160.424V160.223C157.206 159.843 156.134 159.664 155.039 159.664C152.558 159.664 151.329 160.223 151.329 161.318C151.329 162.413 152.313 162.971 154.301 162.971C157.05 162.971 158.301 161.966 158.301 160.424ZM170.489 155.82H170.601C171.696 154.033 173.64 153.139 176.411 153.139V156.625C174.4 156.401 170.668 157.251 170.623 160.111V165.25H166.199V153.362H170.176L170.489 155.82ZM194.067 159.15V160.357H182.134C182.469 161.899 184.212 162.658 187.341 162.658C188.346 162.658 189.419 162.569 190.536 162.368C191.654 162.167 192.547 161.943 193.195 161.697V164.669C192.413 164.915 191.341 165.094 189.933 165.25C188.547 165.407 187.274 165.474 186.134 165.474C180.615 165.474 177.397 163.239 177.397 159.306C177.397 157.452 178.134 155.954 179.609 154.837C181.106 153.697 183.14 153.139 185.709 153.139C188.324 153.139 190.357 153.675 191.832 154.748C193.307 155.82 194.045 157.295 194.067 159.15ZM182.112 158.368H189.374C189.263 156.781 187.944 155.887 185.709 155.887C183.899 155.887 182.492 156.826 182.112 158.368ZM206.854 153.139C211.256 153.139 213.804 155.44 213.804 159.217V165.25H209.357V159.217C209.357 157.139 207.748 155.954 205.178 155.954C202.653 155.954 201.044 157.116 201.044 159.195V165.25H196.619V153.362H200.597L200.865 155.217H200.977C202.251 153.832 204.195 153.139 206.854 153.139ZM227.589 162.614L229.824 162.413V165.295C228.863 165.407 228.014 165.474 227.254 165.474C225.109 165.474 223.657 165.318 222.293 164.848C220.349 164.133 219.321 162.547 219.321 159.731V156.021H215.545V153.362H219.321V149.608H223.724V153.362H229.377V156.021H223.724V159.552C223.724 161.72 224.752 162.614 227.589 162.614ZM250.626 160.804H244.459V165.25H239.945V149.608H250.626C256.191 149.608 258.671 151.552 258.671 155.195C258.671 158.926 255.989 160.804 250.626 160.804ZM250.604 152.692H244.459V157.697H250.604C252.839 157.697 254.157 156.871 254.157 155.195C254.157 153.519 252.839 152.692 250.604 152.692ZM277.955 160.066H265.889V165.25H261.375V149.608H279.453V152.714H265.889V157.116H277.955V160.066ZM292.678 160.804H286.511V165.25H281.997V149.608H292.678C298.243 149.608 300.723 151.552 300.723 155.195C300.723 158.926 298.041 160.804 292.678 160.804ZM292.656 152.692H286.511V157.697H292.656C294.891 157.697 296.209 156.871 296.209 155.195C296.209 153.519 294.891 152.692 292.656 152.692ZM318.12 164.178L316.734 167.016C311.885 165.653 309.047 162.256 309.047 157.429C309.047 152.603 311.885 149.206 316.734 147.843L318.12 150.681C315.259 151.753 313.606 154.122 313.606 157.429C313.606 160.737 315.259 163.105 318.12 164.178ZM331.61 160.804H325.442V165.25H320.928V149.608H331.61C337.174 149.608 339.654 151.552 339.654 155.195C339.654 158.926 336.973 160.804 331.61 160.804ZM331.587 152.692H325.442V157.697H331.587C333.822 157.697 335.14 156.871 335.14 155.195C335.14 153.519 333.822 152.692 331.587 152.692ZM356.95 159.44V149.608H361.285V165.25H356.704L346.827 155.44H346.715V165.25H342.358V149.608H346.872L356.838 159.44H356.95ZM374.072 156.29H384.038V163.686C383.167 164.156 381.915 164.558 380.284 164.938C378.653 165.295 377.178 165.474 375.859 165.474C368.329 165.474 364.418 162.457 364.418 157.429C364.418 152.401 368.329 149.385 375.859 149.385C378.34 149.385 380.709 149.765 382.966 150.524V153.765C381.2 152.893 378.966 152.468 376.262 152.468C371.77 152.468 368.977 154.189 368.977 157.429C368.977 160.714 371.681 162.457 376.217 162.457C377.401 162.457 378.496 162.211 379.524 161.742V158.904H374.072V156.29ZM387.117 167.016L385.731 164.178C388.592 163.105 390.245 160.737 390.245 157.429C390.245 154.122 388.592 151.753 385.731 150.681L387.117 147.843C391.966 149.206 394.804 152.603 394.804 157.429C394.804 162.256 391.966 165.653 387.117 167.016Z" fill="white"/>
<path d="M53.2636 214.405H47.096V218.852H42.5821V203.209H53.2636C58.8278 203.209 61.3083 205.153 61.3083 208.796C61.3083 212.528 58.6267 214.405 53.2636 214.405ZM53.2413 206.293H47.096V211.299H53.2413C55.4759 211.299 56.7943 210.472 56.7943 208.796C56.7943 207.12 55.4759 206.293 53.2413 206.293ZM80.5927 213.667H68.5258V218.852H64.0118V203.209H82.0899V206.315H68.5258V210.718H80.5927V213.667ZM95.3156 214.405H89.148V218.852H84.6341V203.209H95.3156C100.88 203.209 103.36 205.153 103.36 208.796C103.36 212.528 100.679 214.405 95.3156 214.405ZM95.2932 206.293H89.148V211.299H95.2932C97.5279 211.299 98.8463 210.472 98.8463 208.796C98.8463 207.12 97.5279 206.293 95.2932 206.293ZM120.757 217.779L119.371 220.617C114.522 219.254 111.684 215.857 111.684 211.03C111.684 206.204 114.522 202.807 119.371 201.444L120.757 204.282C117.897 205.354 116.243 207.723 116.243 211.03C116.243 214.338 117.897 216.706 120.757 217.779ZM134.247 214.405H128.079V218.852H123.565V203.209H134.247C139.811 203.209 142.292 205.153 142.292 208.796C142.292 212.528 139.61 214.405 134.247 214.405ZM134.225 206.293H128.079V211.299H134.225C136.459 211.299 137.778 210.472 137.778 208.796C137.778 207.12 136.459 206.293 134.225 206.293ZM159.587 213.042V203.209H163.922V218.852H159.341L149.464 209.042H149.353V218.852H144.995V203.209H149.509L159.476 213.042H159.587ZM176.709 209.891H186.675V217.287C185.804 217.757 184.553 218.159 182.921 218.539C181.29 218.896 179.815 219.075 178.497 219.075C170.966 219.075 167.055 216.058 167.055 211.03C167.055 206.002 170.966 202.986 178.497 202.986C180.977 202.986 183.346 203.366 185.603 204.125V207.366C183.837 206.494 181.603 206.07 178.899 206.07C174.407 206.07 171.614 207.79 171.614 211.03C171.614 214.315 174.318 216.058 178.854 216.058C180.039 216.058 181.134 215.812 182.161 215.343V212.505H176.709V209.891ZM189.754 220.617L188.369 217.779C191.229 216.706 192.883 214.338 192.883 211.03C192.883 207.723 191.229 205.354 188.369 204.282L189.754 201.444C194.603 202.807 197.441 206.204 197.441 211.03C197.441 215.857 194.603 219.254 189.754 220.617Z" fill="white"/>
</svg>
