<svg width="525" height="269" viewBox="0 0 525 269" fill="none" xmlns="http://www.w3.org/2000/svg">
<rect x="0.795898" y="0.898438" width="523.354" height="267.914" rx="25.4247" fill="#E4E4E4"/>
<path d="M477.873 74.562L44.6832 74.5621" stroke="black" stroke-width="1.67597" stroke-linecap="round"/>
<path d="M477.873 125.932L44.6832 125.932" stroke="black" stroke-width="1.67597" stroke-linecap="round"/>
<path d="M477.873 177.299L44.6832 177.299" stroke="black" stroke-width="1.67597" stroke-linecap="round"/>
<path d="M477.873 228.667L44.6832 228.668" stroke="black" stroke-width="1.67597" stroke-linecap="round"/>
<path d="M47.9079 45.5062H41.1817V42.4001H59.1481V45.5062H52.4219V58.0425H47.9079V45.5062ZM65.3673 48.6124H65.4791C66.574 46.8247 68.5181 45.9308 71.2891 45.9308V49.4168C69.2779 49.1934 65.5461 50.0425 65.5014 52.9028V58.0425H61.0768V46.1543H65.0545L65.3673 48.6124ZM79.6937 45.9308C85.1909 45.9308 87.9395 47.5174 87.9395 50.7129V58.0425H84.1183L83.7831 56.4559H83.6713C82.5764 57.6626 80.7216 58.2659 78.0624 58.2659C74.3306 58.2659 72.0289 56.8358 72.0289 54.3553C72.0289 51.8302 74.4647 50.5565 78.8222 50.5565C80.5429 50.5565 82.0848 50.7799 83.4479 51.2269V51.0481C83.4479 49.5956 81.9954 48.8582 79.1127 48.8582C78.0177 48.8582 76.8781 48.9699 75.6937 49.2157C74.5317 49.4615 73.6826 49.7073 73.1686 49.9978V46.847C73.6379 46.6459 74.5764 46.4448 76.0066 46.2437C77.4367 46.0425 78.6658 45.9308 79.6937 45.9308ZM83.4255 53.2157V53.0146C82.3306 52.6347 81.258 52.4559 80.163 52.4559C77.6826 52.4559 76.4535 53.0146 76.4535 54.1095C76.4535 55.2045 77.4367 55.7632 79.4256 55.7632C82.1741 55.7632 83.4255 54.7576 83.4255 53.2157ZM101.557 45.9308C105.96 45.9308 108.507 48.2325 108.507 52.009V58.0425H104.06V52.009C104.06 49.9308 102.451 48.7464 99.8815 48.7464C97.3563 48.7464 95.7474 49.9084 95.7474 51.9866V58.0425H91.3228V46.1543H95.3005L95.5686 48.009H95.6804C96.9541 46.6235 98.8982 45.9308 101.557 45.9308ZM118.919 50.4894C123.589 50.7353 126.137 51.7855 126.137 54.1989C126.137 56.9028 123.634 58.2659 118.606 58.2659C115.79 58.2659 113.176 57.9531 110.785 57.3051V54.4671C113.31 55.2492 115.902 55.6291 118.606 55.6291C120.729 55.6291 121.801 55.2939 121.801 54.6235C121.801 53.8414 120.84 53.6403 118.159 53.4615C115.991 53.3498 114.405 53.0593 112.997 52.523C111.634 51.9643 110.874 51.0258 110.874 49.752C110.874 47.361 113.667 45.9308 118.427 45.9308C120.863 45.9308 122.986 46.1543 124.773 46.6012V49.3274C122.941 48.8135 120.952 48.5453 118.807 48.5453C116.371 48.5453 115.165 48.8582 115.165 49.4615C115.165 50.1766 116.125 50.3107 118.427 50.4671C118.651 50.4894 118.807 50.4894 118.919 50.4894ZM138.586 58.2659C136.173 58.2659 134.34 57.6179 133.067 56.2995H132.955V62.5341H128.53V46.1543H132.508L132.798 48.0537H132.91C134.161 46.6459 136.061 45.9308 138.586 45.9308C140.843 45.9308 142.608 46.4895 143.882 47.5844C145.156 48.6794 145.782 50.1766 145.782 52.076C145.782 53.9531 145.156 55.4503 143.882 56.59C142.608 57.7073 140.843 58.2659 138.586 58.2659ZM137.156 48.7464C134.72 48.7464 132.999 50.0202 132.999 52.076C132.999 54.1542 134.72 55.4503 137.156 55.4503C139.681 55.4503 141.335 54.2213 141.335 52.0984C141.335 49.9755 139.681 48.7464 137.156 48.7464ZM155.069 45.9308C160.566 45.9308 163.314 47.5174 163.314 50.7129V58.0425H159.493L159.158 56.4559H159.046C157.951 57.6626 156.097 58.2659 153.437 58.2659C149.706 58.2659 147.404 56.8358 147.404 54.3553C147.404 51.8302 149.84 50.5565 154.197 50.5565C155.918 50.5565 157.46 50.7799 158.823 51.2269V51.0481C158.823 49.5956 157.37 48.8582 154.488 48.8582C153.393 48.8582 152.253 48.9699 151.069 49.2157C149.907 49.4615 149.058 49.7073 148.544 49.9978V46.847C149.013 46.6459 149.951 46.4448 151.382 46.2437C152.812 46.0425 154.041 45.9308 155.069 45.9308ZM158.8 53.2157V53.0146C157.706 52.6347 156.633 52.4559 155.538 52.4559C153.057 52.4559 151.828 53.0146 151.828 54.1095C151.828 55.2045 152.812 55.7632 154.801 55.7632C157.549 55.7632 158.8 54.7576 158.8 53.2157ZM170.988 48.6124H171.1C172.195 46.8247 174.139 45.9308 176.91 45.9308V49.4168C174.899 49.1934 171.167 50.0425 171.122 52.9028V58.0425H166.698V46.1543H170.675L170.988 48.6124ZM194.566 51.942V53.1487H182.633C182.968 54.6905 184.711 55.4503 187.84 55.4503C188.845 55.4503 189.918 55.3609 191.035 55.1598C192.153 54.9587 193.046 54.7352 193.694 54.4894V57.4615C192.912 57.7073 191.84 57.8861 190.432 58.0425C189.046 58.1989 187.773 58.2659 186.633 58.2659C181.114 58.2659 177.896 56.0313 177.896 52.0984C177.896 50.2436 178.633 48.7464 180.108 47.6291C181.605 46.4895 183.639 45.9308 186.209 45.9308C188.823 45.9308 190.857 46.4671 192.331 47.5397C193.806 48.6124 194.544 50.0872 194.566 51.942ZM182.611 51.1598H189.873C189.762 49.5733 188.443 48.6794 186.209 48.6794C184.398 48.6794 182.991 49.6179 182.611 51.1598ZM207.353 45.9308C211.755 45.9308 214.303 48.2325 214.303 52.009V58.0425H209.856V52.009C209.856 49.9308 208.247 48.7464 205.677 48.7464C203.152 48.7464 201.543 49.9084 201.543 51.9866V58.0425H197.118V46.1543H201.096L201.364 48.009H201.476C202.75 46.6235 204.694 45.9308 207.353 45.9308ZM228.089 55.4056L230.323 55.2045V58.0872C229.362 58.1989 228.513 58.2659 227.753 58.2659C225.608 58.2659 224.156 58.1095 222.792 57.6402C220.848 56.9252 219.82 55.3386 219.82 52.523V48.8135H216.044V46.1543H219.82V42.4001H224.223V46.1543H229.876V48.8135H224.223V52.3442C224.223 54.5118 225.251 55.4056 228.089 55.4056ZM257.025 52.8582H244.958V58.0425H240.444V42.4001H258.522V45.5062H244.958V49.9084H257.025V52.8582ZM267.569 58.2659C263.167 58.2659 260.619 55.9643 260.619 52.1878V46.1543H265.066V52.1878C265.066 54.266 266.675 55.4503 269.245 55.4503C271.77 55.4503 273.379 54.2883 273.379 52.2101V46.1543H277.804V58.0425H273.826L273.558 56.1877H273.446C272.172 57.5732 270.228 58.2659 267.569 58.2659ZM281.355 58.0425V41.7297H285.779V58.0425H281.355ZM289.407 58.0425V41.7297H293.832V58.0425H289.407ZM305.78 58.0425V42.4001H317.624C321.982 42.4001 324.171 43.7409 324.171 46.4224C324.171 48.1431 323.233 49.3051 321.356 49.9084V50.0202C323.725 50.5565 324.909 51.8302 324.909 53.8637C324.909 56.657 322.719 58.0425 318.361 58.0425H305.78ZM310.294 55.2045H317.244C319.032 55.2045 320.171 54.5341 320.171 53.2157C320.171 51.8973 319.032 51.2045 317.244 51.2045H310.294V55.2045ZM316.507 45.2381H310.294V48.8582H316.507C318.294 48.8582 319.434 48.2101 319.434 47.0481C319.434 45.8638 318.294 45.2381 316.507 45.2381ZM335.237 48.7464C332.913 48.7464 331.281 49.9531 331.281 52.0984C331.281 54.2436 332.913 55.4503 335.237 55.4503C337.583 55.4503 339.214 54.2436 339.214 52.0984C339.214 49.9531 337.583 48.7464 335.237 48.7464ZM343.661 52.0984C343.661 54.0202 342.924 55.5397 341.426 56.6347C339.929 57.7296 337.873 58.2659 335.259 58.2659C332.644 58.2659 330.566 57.7073 329.069 56.6123C327.572 55.5174 326.834 53.9978 326.834 52.0984C326.834 50.1989 327.572 48.6794 329.069 47.5844C330.566 46.4895 332.644 45.9308 335.259 45.9308C337.873 45.9308 339.929 46.4895 341.426 47.5844C342.924 48.6794 343.661 50.1989 343.661 52.0984ZM352.732 45.9308C355.167 45.9308 357 46.6012 358.251 47.9196H358.363V41.7297H362.788V58.0425H358.81L358.519 56.009H358.408C357.089 57.5062 355.212 58.2659 352.732 58.2659C350.475 58.2659 348.709 57.7073 347.436 56.59C346.162 55.4503 345.536 53.9531 345.536 52.0537C345.536 50.1766 346.162 48.6794 347.436 47.5844C348.709 46.4895 350.475 45.9308 352.732 45.9308ZM354.162 55.4503C356.598 55.4503 358.318 54.1319 358.318 52.0537C358.318 49.9978 356.598 48.7464 354.162 48.7464C351.637 48.7464 349.983 49.9755 349.983 52.0537C349.983 54.1766 351.637 55.4503 354.162 55.4503ZM374.309 53.5285L378.198 46.1543H383.136L374.108 62.5341H369.639L372.231 57.5285L364.745 46.1543H369.706L374.198 53.5285H374.309ZM399.995 56.9699L398.609 59.8078C393.76 58.4447 390.922 55.0481 390.922 50.2213C390.922 45.3945 393.76 41.9979 398.609 40.6348L399.995 43.4727C397.135 44.5453 395.481 46.914 395.481 50.2213C395.481 53.5285 397.135 55.8972 399.995 56.9699ZM413.485 53.5956H407.317V58.0425H402.803V42.4001H413.485C419.049 42.4001 421.53 44.3442 421.53 47.9867C421.53 51.7185 418.848 53.5956 413.485 53.5956ZM413.463 45.4839H407.317V50.4894H413.463C415.697 50.4894 417.016 49.6626 417.016 47.9867C417.016 46.3107 415.697 45.4839 413.463 45.4839ZM438.825 52.2325V42.4001H443.16V58.0425H438.579L428.702 48.2325H428.591V58.0425H424.233V42.4001H428.747L438.713 52.2325H438.825ZM455.947 49.0816H465.913V56.4782C465.042 56.9475 463.79 57.3497 462.159 57.7296C460.528 58.0872 459.053 58.2659 457.735 58.2659C450.204 58.2659 446.293 55.2492 446.293 50.2213C446.293 45.1934 450.204 42.1766 457.735 42.1766C460.215 42.1766 462.584 42.5565 464.841 43.3163V46.5565C463.075 45.685 460.841 45.2604 458.137 45.2604C453.645 45.2604 450.852 46.9811 450.852 50.2213C450.852 53.5062 453.556 55.2492 458.092 55.2492C459.277 55.2492 460.371 55.0034 461.399 54.5341V51.6961H455.947V49.0816ZM468.992 59.8078L467.607 56.9699C470.467 55.8972 472.121 53.5285 472.121 50.2213C472.121 46.914 470.467 44.5453 467.607 43.4727L468.992 40.6348C473.841 41.9979 476.679 45.3945 476.679 50.2213C476.679 55.0481 473.841 58.4447 468.992 59.8078Z" fill="black"/>
<path d="M59.662 106.462H47.5951V111.646H43.0811V96.0036H61.1592V99.1097H47.5951V103.512H59.662V106.462ZM70.2062 111.869C65.8039 111.869 63.2565 109.568 63.2565 105.791V99.7578H67.7034V105.791C67.7034 107.869 69.3123 109.054 71.8821 109.054C74.4073 109.054 76.0162 107.892 76.0162 105.814V99.7578H80.4407V111.646H76.4631L76.195 109.791H76.0832C74.8095 111.177 72.8654 111.869 70.2062 111.869ZM83.992 111.646V95.3332H88.4166V111.646H83.992ZM92.0446 111.646V95.3332H96.4691V111.646H92.0446ZM108.418 111.646V96.0036H120.261C124.619 96.0036 126.809 97.3444 126.809 100.026C126.809 101.747 125.87 102.909 123.993 103.512V103.624C126.362 104.16 127.546 105.434 127.546 107.467C127.546 110.261 125.356 111.646 120.999 111.646H108.418ZM112.932 108.808H119.881C121.669 108.808 122.809 108.138 122.809 106.819C122.809 105.501 121.669 104.808 119.881 104.808H112.932V108.808ZM119.144 98.8416H112.932V102.462H119.144C120.932 102.462 122.071 101.814 122.071 100.652C122.071 99.4673 120.932 98.8416 119.144 98.8416ZM137.874 102.35C135.55 102.35 133.918 103.557 133.918 105.702C133.918 107.847 135.55 109.054 137.874 109.054C140.22 109.054 141.851 107.847 141.851 105.702C141.851 103.557 140.22 102.35 137.874 102.35ZM146.298 105.702C146.298 107.624 145.561 109.143 144.064 110.238C142.566 111.333 140.511 111.869 137.896 111.869C135.282 111.869 133.203 111.311 131.706 110.216C130.209 109.121 129.472 107.601 129.472 105.702C129.472 103.802 130.209 102.283 131.706 101.188C133.203 100.093 135.282 99.5343 137.896 99.5343C140.511 99.5343 142.566 100.093 144.064 101.188C145.561 102.283 146.298 103.802 146.298 105.702ZM155.369 99.5343C157.805 99.5343 159.637 100.205 160.888 101.523H161V95.3332H165.425V111.646H161.447L161.157 109.612H161.045C159.726 111.11 157.849 111.869 155.369 111.869C153.112 111.869 151.347 111.311 150.073 110.193C148.799 109.054 148.173 107.557 148.173 105.657C148.173 103.78 148.799 102.283 150.073 101.188C151.347 100.093 153.112 99.5343 155.369 99.5343ZM156.799 109.054C159.235 109.054 160.955 107.735 160.955 105.657C160.955 103.601 159.235 102.35 156.799 102.35C154.274 102.35 152.62 103.579 152.62 105.657C152.62 107.78 154.274 109.054 156.799 109.054ZM176.947 107.132L180.835 99.7578H185.773L176.745 116.138H172.276L174.868 111.132L167.382 99.7578H172.343L176.835 107.132H176.947ZM202.632 110.573L201.247 113.411C196.398 112.048 193.56 108.652 193.56 103.825C193.56 98.998 196.398 95.6014 201.247 94.2383L202.632 97.0762C199.772 98.1489 198.118 100.518 198.118 103.825C198.118 107.132 199.772 109.501 202.632 110.573ZM216.122 107.199H209.955V111.646H205.441V96.0036H216.122C221.686 96.0036 224.167 97.9477 224.167 101.59C224.167 105.322 221.485 107.199 216.122 107.199ZM216.1 99.0874H209.955V104.093H216.1C218.334 104.093 219.653 103.266 219.653 101.59C219.653 99.9142 218.334 99.0874 216.1 99.0874ZM241.462 105.836V96.0036H245.798V111.646H241.217L231.34 101.836H231.228V111.646H226.87V96.0036H231.384L241.351 105.836H241.462ZM258.584 102.685H268.551V110.082C267.679 110.551 266.428 110.953 264.796 111.333C263.165 111.691 261.69 111.869 260.372 111.869C252.841 111.869 248.931 108.853 248.931 103.825C248.931 98.7969 252.841 95.7802 260.372 95.7802C262.852 95.7802 265.221 96.16 267.478 96.9198V100.16C265.713 99.2885 263.478 98.8639 260.774 98.8639C256.282 98.8639 253.489 100.585 253.489 103.825C253.489 107.11 256.193 108.853 260.729 108.853C261.914 108.853 263.009 108.607 264.037 108.138V105.3H258.584V102.685ZM271.629 113.411L270.244 110.573C273.104 109.501 274.758 107.132 274.758 103.825C274.758 100.518 273.104 98.1489 270.244 97.0762L271.629 94.2383C276.478 95.6014 279.316 98.998 279.316 103.825C279.316 108.652 276.478 112.048 271.629 113.411Z" fill="black"/>
<path d="M47.9079 152.713H41.1817V149.607H59.1481V152.713H52.4219V165.25H47.9079V152.713ZM65.3673 155.819H65.4791C66.574 154.032 68.5181 153.138 71.2891 153.138V156.624C69.2779 156.4 65.5461 157.25 65.5014 160.11V165.25H61.0768V153.361H65.0545L65.3673 155.819ZM79.6937 153.138C85.1909 153.138 87.9395 154.724 87.9395 157.92V165.25H84.1183L83.7831 163.663H83.6713C82.5764 164.87 80.7216 165.473 78.0624 165.473C74.3306 165.473 72.0289 164.043 72.0289 161.562C72.0289 159.037 74.4647 157.764 78.8222 157.764C80.5429 157.764 82.0848 157.987 83.4479 158.434V158.255C83.4479 156.803 81.9954 156.065 79.1127 156.065C78.0177 156.065 76.8781 156.177 75.6937 156.423C74.5317 156.669 73.6826 156.914 73.1686 157.205V154.054C73.6379 153.853 74.5764 153.652 76.0066 153.451C77.4367 153.25 78.6658 153.138 79.6937 153.138ZM83.4255 160.423V160.222C82.3306 159.842 81.258 159.663 80.163 159.663C77.6826 159.663 76.4535 160.222 76.4535 161.317C76.4535 162.412 77.4367 162.97 79.4256 162.97C82.1741 162.97 83.4255 161.965 83.4255 160.423ZM101.557 153.138C105.96 153.138 108.507 155.44 108.507 159.216V165.25H104.06V159.216C104.06 157.138 102.451 155.953 99.8815 155.953C97.3563 155.953 95.7474 157.115 95.7474 159.194V165.25H91.3228V153.361H95.3005L95.5686 155.216H95.6804C96.9541 153.831 98.8982 153.138 101.557 153.138ZM118.919 157.696C123.589 157.942 126.137 158.993 126.137 161.406C126.137 164.11 123.634 165.473 118.606 165.473C115.79 165.473 113.176 165.16 110.785 164.512V161.674C113.31 162.456 115.902 162.836 118.606 162.836C120.729 162.836 121.801 162.501 121.801 161.831C121.801 161.048 120.84 160.847 118.159 160.669C115.991 160.557 114.405 160.266 112.997 159.73C111.634 159.171 110.874 158.233 110.874 156.959C110.874 154.568 113.667 153.138 118.427 153.138C120.863 153.138 122.986 153.361 124.773 153.808V156.534C122.941 156.021 120.952 155.752 118.807 155.752C116.371 155.752 115.165 156.065 115.165 156.669C115.165 157.384 116.125 157.518 118.427 157.674C118.651 157.696 118.807 157.696 118.919 157.696ZM138.586 165.473C136.173 165.473 134.34 164.825 133.067 163.507H132.955V169.741H128.53V153.361H132.508L132.798 155.261H132.91C134.161 153.853 136.061 153.138 138.586 153.138C140.843 153.138 142.608 153.697 143.882 154.791C145.156 155.886 145.782 157.384 145.782 159.283C145.782 161.16 145.156 162.657 143.882 163.797C142.608 164.914 140.843 165.473 138.586 165.473ZM137.156 155.953C134.72 155.953 132.999 157.227 132.999 159.283C132.999 161.361 134.72 162.657 137.156 162.657C139.681 162.657 141.335 161.428 141.335 159.305C141.335 157.183 139.681 155.953 137.156 155.953ZM155.069 153.138C160.566 153.138 163.314 154.724 163.314 157.92V165.25H159.493L159.158 163.663H159.046C157.951 164.87 156.097 165.473 153.437 165.473C149.706 165.473 147.404 164.043 147.404 161.562C147.404 159.037 149.84 157.764 154.197 157.764C155.918 157.764 157.46 157.987 158.823 158.434V158.255C158.823 156.803 157.37 156.065 154.488 156.065C153.393 156.065 152.253 156.177 151.069 156.423C149.907 156.669 149.058 156.914 148.544 157.205V154.054C149.013 153.853 149.951 153.652 151.382 153.451C152.812 153.25 154.041 153.138 155.069 153.138ZM158.8 160.423V160.222C157.706 159.842 156.633 159.663 155.538 159.663C153.057 159.663 151.828 160.222 151.828 161.317C151.828 162.412 152.812 162.97 154.801 162.97C157.549 162.97 158.8 161.965 158.8 160.423ZM170.988 155.819H171.1C172.195 154.032 174.139 153.138 176.91 153.138V156.624C174.899 156.4 171.167 157.25 171.122 160.11V165.25H166.698V153.361H170.675L170.988 155.819ZM194.566 159.149V160.356H182.633C182.968 161.898 184.711 162.657 187.84 162.657C188.845 162.657 189.918 162.568 191.035 162.367C192.153 162.166 193.046 161.942 193.694 161.696V164.669C192.912 164.914 191.84 165.093 190.432 165.25C189.046 165.406 187.773 165.473 186.633 165.473C181.114 165.473 177.896 163.238 177.896 159.305C177.896 157.451 178.633 155.953 180.108 154.836C181.605 153.697 183.639 153.138 186.209 153.138C188.823 153.138 190.857 153.674 192.331 154.747C193.806 155.819 194.544 157.294 194.566 159.149ZM182.611 158.367H189.873C189.762 156.78 188.443 155.886 186.209 155.886C184.398 155.886 182.991 156.825 182.611 158.367ZM207.353 153.138C211.755 153.138 214.303 155.44 214.303 159.216V165.25H209.856V159.216C209.856 157.138 208.247 155.953 205.677 155.953C203.152 155.953 201.543 157.115 201.543 159.194V165.25H197.118V153.361H201.096L201.364 155.216H201.476C202.75 153.831 204.694 153.138 207.353 153.138ZM228.089 162.613L230.323 162.412V165.294C229.362 165.406 228.513 165.473 227.753 165.473C225.608 165.473 224.156 165.317 222.792 164.847C220.848 164.132 219.82 162.546 219.82 159.73V156.021H216.044V153.361H219.82V149.607H224.223V153.361H229.876V156.021H224.223V159.551C224.223 161.719 225.251 162.613 228.089 162.613ZM251.125 160.803H244.958V165.25H240.444V149.607H251.125C256.69 149.607 259.17 151.551 259.17 155.194C259.17 158.926 256.489 160.803 251.125 160.803ZM251.103 152.691H244.958V157.696H251.103C253.338 157.696 254.656 156.87 254.656 155.194C254.656 153.518 253.338 152.691 251.103 152.691ZM278.455 160.065H266.388V165.25H261.874V149.607H279.952V152.713H266.388V157.115H278.455V160.065ZM293.177 160.803H287.01V165.25H282.496V149.607H293.177C298.742 149.607 301.222 151.551 301.222 155.194C301.222 158.926 298.54 160.803 293.177 160.803ZM293.155 152.691H287.01V157.696H293.155C295.39 157.696 296.708 156.87 296.708 155.194C296.708 153.518 295.39 152.691 293.155 152.691ZM318.619 164.177L317.233 167.015C312.384 165.652 309.546 162.255 309.546 157.428C309.546 152.602 312.384 149.205 317.233 147.842L318.619 150.68C315.758 151.752 314.105 154.121 314.105 157.428C314.105 160.736 315.758 163.104 318.619 164.177ZM332.109 160.803H325.941V165.25H321.427V149.607H332.109C337.673 149.607 340.153 151.551 340.153 155.194C340.153 158.926 337.472 160.803 332.109 160.803ZM332.086 152.691H325.941V157.696H332.086C334.321 157.696 335.639 156.87 335.639 155.194C335.639 153.518 334.321 152.691 332.086 152.691ZM357.449 159.439V149.607H361.784V165.25H357.203L347.326 155.44H347.214V165.25H342.857V149.607H347.371L357.337 159.439H357.449ZM374.571 156.289H384.537V163.685C383.666 164.155 382.414 164.557 380.783 164.937C379.152 165.294 377.677 165.473 376.358 165.473C368.828 165.473 364.917 162.456 364.917 157.428C364.917 152.4 368.828 149.384 376.358 149.384C378.839 149.384 381.208 149.764 383.465 150.523V153.764C381.699 152.892 379.465 152.467 376.761 152.467C372.269 152.467 369.476 154.188 369.476 157.428C369.476 160.713 372.18 162.456 376.716 162.456C377.9 162.456 378.995 162.21 380.023 161.741V158.903H374.571V156.289ZM387.616 167.015L386.23 164.177C389.091 163.104 390.744 160.736 390.744 157.428C390.744 154.121 389.091 151.752 386.23 150.68L387.616 147.842C392.465 149.205 395.303 152.602 395.303 157.428C395.303 162.255 392.465 165.652 387.616 167.015Z" fill="black"/>
<path d="M53.7626 214.404H47.5951V218.851H43.0811V203.209H53.7626C59.3269 203.209 61.8073 205.153 61.8073 208.795C61.8073 212.527 59.1257 214.404 53.7626 214.404ZM53.7403 206.292H47.5951V211.298H53.7403C55.9749 211.298 57.2933 210.471 57.2933 208.795C57.2933 207.119 55.9749 206.292 53.7403 206.292ZM81.0918 213.667H69.0248V218.851H64.5108V203.209H82.589V206.315H69.0248V210.717H81.0918V213.667ZM95.8146 214.404H89.647V218.851H85.1331V203.209H95.8146C101.379 203.209 103.859 205.153 103.859 208.795C103.859 212.527 101.178 214.404 95.8146 214.404ZM95.7923 206.292H89.647V211.298H95.7923C98.0269 211.298 99.3453 210.471 99.3453 208.795C99.3453 207.119 98.0269 206.292 95.7923 206.292ZM121.256 217.778L119.871 220.616C115.021 219.253 112.183 215.857 112.183 211.03C112.183 206.203 115.021 202.806 119.871 201.443L121.256 204.281C118.396 205.354 116.742 207.723 116.742 211.03C116.742 214.337 118.396 216.706 121.256 217.778ZM134.746 214.404H128.578V218.851H124.064V203.209H134.746C140.31 203.209 142.791 205.153 142.791 208.795C142.791 212.527 140.109 214.404 134.746 214.404ZM134.724 206.292H128.578V211.298H134.724C136.958 211.298 138.277 210.471 138.277 208.795C138.277 207.119 136.958 206.292 134.724 206.292ZM160.086 213.041V203.209H164.421V218.851H159.84L149.963 209.041H149.852V218.851H145.494V203.209H150.008L159.975 213.041H160.086ZM177.208 209.89H187.174V217.287C186.303 217.756 185.052 218.158 183.42 218.538C181.789 218.896 180.314 219.075 178.996 219.075C171.465 219.075 167.554 216.058 167.554 211.03C167.554 206.002 171.465 202.985 178.996 202.985C181.476 202.985 183.845 203.365 186.102 204.125V207.365C184.336 206.494 182.102 206.069 179.398 206.069C174.906 206.069 172.113 207.79 172.113 211.03C172.113 214.315 174.817 216.058 179.353 216.058C180.538 216.058 181.633 215.812 182.661 215.343V212.505H177.208V209.89ZM190.253 220.616L188.868 217.778C191.728 216.706 193.382 214.337 193.382 211.03C193.382 207.723 191.728 205.354 188.868 204.281L190.253 201.443C195.102 202.806 197.94 206.203 197.94 211.03C197.94 215.857 195.102 219.253 190.253 220.616Z" fill="black"/>
</svg>
