<svg width="44" height="44" viewBox="0 0 44 44" fill="none" xmlns="http://www.w3.org/2000/svg">
<path d="M17.7454 0.253906C8.34692 0.253906 0.745361 7.85547 0.745361 17.2539C0.745361 26.6523 8.34692 34.2539 17.7454 34.2539C21.1008 34.2539 24.2063 33.2695 26.8391 31.5977L39.1204 43.8789L43.3704 39.6289L31.2454 27.5352C33.425 24.6758 34.7454 21.1328 34.7454 17.2539C34.7454 7.85547 27.1438 0.253906 17.7454 0.253906ZM17.7454 4.25391C24.9446 4.25391 30.7454 10.0547 30.7454 17.2539C30.7454 24.4531 24.9446 30.2539 17.7454 30.2539C10.5461 30.2539 4.74536 24.4531 4.74536 17.2539C4.74536 10.0547 10.5461 4.25391 17.7454 4.25391Z" fill="#767676"/>
</svg>
