<svg width="680" height="85" viewBox="0 0 680 85" fill="none" xmlns="http://www.w3.org/2000/svg">
<path d="M0.751869 55.8374H16.0467C16.0467 63.5469 20.5714 71.6174 45.776 71.6174C70.9806 71.6174 76.1161 65.622 76.1161 58.648C76.1161 54.6095 73.6665 52.0418 68.6558 50.6956C62.9096 49.3495 49.69 48.9817 40.2728 48.4958C29.7522 47.8851 16.7822 46.7818 10.0575 43.6035C4.06169 40.7929 0.27247 34.9157 0.27247 27.331C0.259336 12.8972 14.4509 0.90625 45.4017 0.90625C82.3482 0.90625 89.1977 14.2434 89.1977 28.6772H73.9029C73.9029 19.5034 66.9287 13.6327 45.3951 13.6327C25.7003 13.6327 17.012 18.5249 17.012 26.1096C17.012 30.1482 19.212 32.348 23.2508 33.819C28.2681 35.5329 41.8489 36.0189 50.8983 36.5114C62.2792 37.1221 73.8964 37.8576 81.1202 40.4252C88.7052 43.3605 92.987 49.7238 92.987 57.4332C92.987 69.6671 86.0127 84.3439 45.7629 84.3439C5.51303 84.3439 0.751869 66.4756 0.751869 55.8374Z" fill="#1E1E1E"/>
<path d="M107.546 2.38086H124.305V82.8765H107.546V2.38086Z" fill="#1E1E1E"/>
<path d="M141.195 2.38086H158.079V69.0535H210.439V82.8765H141.195V2.38086Z" fill="#1E1E1E"/>
<path d="M222.795 2.38086H239.554V82.8765H222.795V2.38086Z" fill="#1E1E1E"/>
<path d="M253.512 42.868C253.512 19.7464 270.396 0.90625 302.818 0.90625C337.321 0.90625 348.938 19.8711 348.938 32.9587V34.5479H333.644V34.0554C333.644 25.6171 325.323 14.2368 303.671 14.2368C282.02 14.2368 270.882 26.346 270.882 42.8615C270.882 57.2953 280.299 71.0001 303.914 71.0001C324.22 71.0001 334.13 61.7016 334.13 51.5493V50.8138H349.424V52.16C349.424 67.3293 336.211 84.3373 303.547 84.3373C266.357 84.3373 253.512 63.1725 253.512 42.868Z" fill="#1E1E1E"/>
<path d="M359.943 42.2573C359.943 19.5034 376.827 0.90625 411.817 0.90625C446.807 0.90625 463.691 19.5034 463.691 42.2573C463.691 65.0112 447.91 84.3373 411.817 84.3373C375.724 84.3373 359.943 66.8434 359.943 42.2573ZM446.314 42.2573C446.314 26.7203 434.815 14.2434 411.81 14.2434C388.806 14.2434 377.307 26.7203 377.307 42.2573C377.307 59.5083 388.688 71.0067 411.81 71.0067C434.933 71.0067 446.314 58.648 446.314 42.2573Z" fill="#1E1E1E"/>
<path d="M477.141 2.38086H501.118L556.537 60.1226H556.78V2.38086H572.929V82.8765H556.288L493.526 17.1824H493.401V82.8765H477.128V2.38086H477.141Z" fill="#1E1E1E"/>
<path d="M587.49 55.8374H602.785C602.785 63.5469 607.31 71.6174 632.514 71.6174C657.719 71.6174 662.854 65.622 662.854 58.648C662.854 54.6095 660.405 52.0418 655.394 50.6956C649.641 49.3495 636.428 48.9817 627.011 48.4958C616.491 47.8851 603.52 46.7818 596.796 43.6035C590.8 40.7929 587.011 34.9157 587.011 27.331C587.011 12.8972 601.202 0.90625 632.153 0.90625C669.1 0.90625 675.949 14.2434 675.949 28.6772H660.654C660.654 19.5034 653.68 13.6327 632.147 13.6327C612.452 13.6327 603.763 18.5249 603.763 26.1096C603.763 30.1482 605.963 32.348 610.002 33.819C615.019 35.5329 628.6 36.0189 637.65 36.5114C649.031 37.1221 660.648 37.8576 667.865 40.4252C675.45 43.3605 679.732 49.7238 679.732 57.4332C679.732 69.6671 672.758 84.3439 632.508 84.3439C592.258 84.3439 587.484 66.4822 587.484 55.8374H587.49Z" fill="#1E1E1E"/>
</svg>
