<svg width="681" height="85" viewBox="0 0 681 85" fill="none" xmlns="http://www.w3.org/2000/svg">
<path d="M1.20402 55.8355H16.4988C16.4988 63.5449 21.0236 71.6155 46.2281 71.6155C71.4327 71.6155 76.5682 65.62 76.5682 58.6461C76.5682 54.6075 74.1187 52.0399 69.108 50.6937C63.3617 49.3475 50.1421 48.9798 40.7249 48.4938C30.2044 47.8831 17.2343 46.7799 10.5096 43.6016C4.51384 40.791 0.724618 34.9137 0.724618 27.3291C0.711484 12.8953 14.903 0.904297 45.8538 0.904297C82.8004 0.904297 89.6499 14.2414 89.6499 28.6752H74.3551C74.3551 19.5014 67.3808 13.6307 45.8473 13.6307C26.1525 13.6307 17.4642 18.523 17.4642 26.1076C17.4642 30.1462 19.6642 32.3461 23.7029 33.817C28.7202 35.531 42.301 36.0169 51.3505 36.5094C62.7313 37.1201 74.3485 37.8556 81.5723 40.4232C89.1574 43.3586 93.4391 49.7218 93.4391 57.4312C93.4391 69.6651 86.4648 84.3419 46.215 84.3419C5.96518 84.3419 1.20402 66.4737 1.20402 55.8355Z" fill="white"/>
<path d="M107.998 2.37891H124.757V82.8746H107.998V2.37891Z" fill="white"/>
<path d="M141.646 2.37891H158.531V69.0515H210.89V82.8746H141.646V2.37891Z" fill="white"/>
<path d="M223.246 2.37891H240.005V82.8746H223.246V2.37891Z" fill="white"/>
<path d="M253.963 42.8661C253.963 19.7444 270.847 0.904297 303.269 0.904297C337.772 0.904297 349.39 19.8692 349.39 32.9568V34.546H334.095V34.0534C334.095 25.6151 325.774 14.2349 304.122 14.2349C282.471 14.2349 271.333 26.344 271.333 42.8595C271.333 57.2933 280.75 70.9982 304.365 70.9982C324.671 70.9982 334.581 61.6996 334.581 51.5474V50.8119H349.876V52.1581C349.876 67.3274 336.663 84.3353 303.998 84.3353C266.808 84.3353 253.963 63.1706 253.963 42.8661Z" fill="white"/>
<path d="M360.396 42.2554C360.396 19.5014 377.28 0.904297 412.269 0.904297C447.259 0.904297 464.143 19.5014 464.143 42.2554C464.143 65.0093 448.362 84.3353 412.269 84.3353C376.176 84.3353 360.396 66.8414 360.396 42.2554ZM446.766 42.2554C446.766 26.7183 435.267 14.2414 412.263 14.2414C389.258 14.2414 377.759 26.7183 377.759 42.2554C377.759 59.5063 389.14 71.0048 412.263 71.0048C435.385 71.0048 446.766 58.6461 446.766 42.2554Z" fill="white"/>
<path d="M477.591 2.37891H501.568L556.988 60.1207H557.231V2.37891H573.379V82.8746H556.738L493.976 17.1804H493.851V82.8746H477.578V2.37891H477.591Z" fill="white"/>
<path d="M587.941 55.8355H603.236C603.236 63.5449 607.761 71.6155 632.965 71.6155C658.17 71.6155 663.306 65.62 663.306 58.6461C663.306 54.6075 660.856 52.0399 655.845 50.6937C650.092 49.3475 636.879 48.9798 627.462 48.4938C616.942 47.8831 603.972 46.7799 597.247 43.6016C591.251 40.791 587.462 34.9137 587.462 27.3291C587.462 12.8953 601.653 0.904297 632.604 0.904297C669.551 0.904297 676.4 14.2414 676.4 28.6752H661.106C661.106 19.5014 654.131 13.6307 632.598 13.6307C612.903 13.6307 604.215 18.523 604.215 26.1076C604.215 30.1462 606.415 32.3461 610.453 33.817C615.471 35.531 629.051 36.0169 638.101 36.5094C649.482 37.1201 661.099 37.8556 668.316 40.4232C675.901 43.3586 680.183 49.7218 680.183 57.4312C680.183 69.6651 673.209 84.3419 632.959 84.3419C592.709 84.3419 587.935 66.4803 587.935 55.8355H587.941Z" fill="white"/>
</svg>
