<svg width="483" height="87" viewBox="0 0 483 87" fill="none" xmlns="http://www.w3.org/2000/svg">
<path d="M38.9099 5.73633L1.2207 43.5391H17.6979L28.0387 33.1983V69.9783L38.9099 80.8495V5.73633Z" fill="#1E1E1E"/>
<path d="M50.9931 5.73633L88.6823 43.5391H72.2051L61.8643 33.1983V69.9783L50.9931 80.8495V5.73633Z" fill="#1E1E1E"/>
<path d="M139.155 43.5253C139.155 36.4228 139.146 29.3203 139.159 22.2177C139.165 18.9248 140.679 16.5131 143.683 15.2102C146.684 13.9083 149.568 14.4044 151.916 16.6522C156.85 21.3775 161.668 26.2236 166.535 31.019C168.165 32.625 169.812 34.216 171.418 35.8457C172.032 36.4681 172.404 36.4044 172.917 35.7012C177.314 29.6676 181.755 23.6652 186.156 17.6337C187.64 15.5984 189.618 14.6061 192.104 14.6051C204.02 14.5986 215.937 14.5986 227.853 14.6051C231.823 14.6072 234.894 17.555 234.925 21.3667C234.956 25.1644 231.926 28.2697 228.005 28.3021C221.575 28.3549 215.146 28.3193 208.716 28.3215C208.447 28.3215 208.169 28.2783 207.911 28.3333C207.606 28.3981 207.169 28.4746 207.067 28.6817C206.969 28.8823 207.149 29.3181 207.337 29.5446C208.752 31.2563 210.195 32.9443 211.637 34.6323C212.554 35.7066 213.485 36.7701 214.408 37.84C217.323 41.2117 217.493 44.8875 214.723 48.3746C212.403 51.2954 209.923 54.0911 207.539 56.9612C207.289 57.2622 207.202 57.6979 207.04 58.07C207.439 58.1768 207.838 58.3763 208.238 58.3774C214.7 58.3968 221.164 58.3526 227.626 58.427C228.797 58.44 230.046 58.7312 231.113 59.2144C233.991 60.5184 235.253 63.0844 234.732 66.14C234.236 69.0533 231.787 71.4057 228.882 71.7401C228.349 71.8015 227.807 71.8134 227.27 71.8134C217.037 71.8177 206.804 71.8414 196.57 71.794C194.669 71.7854 192.702 71.7347 190.881 71.259C186.876 70.2117 185.147 66.4755 186.905 62.7295C187.782 60.8614 188.996 59.1292 190.21 57.4444C193.377 53.0514 196.609 48.7068 199.859 44.3752C200.452 43.5846 200.471 43.0787 199.787 42.3086C197.398 39.6165 195.098 36.8456 192.762 34.107C191.711 32.8753 191.665 32.8796 190.721 34.1394C186.489 39.7933 182.156 45.375 178.06 51.125C175.493 54.7275 170.155 54.254 167.733 51.8304C163.785 47.8774 159.805 43.9556 155.813 40.0468C155.392 39.6348 154.802 39.3975 154.291 39.0782C154.167 39.6715 153.938 40.2658 153.936 40.859C153.911 48.4997 153.932 56.1415 153.914 63.7822C153.905 67.8636 151.213 71.2407 147.463 71.9536C143.087 72.782 139.17 69.5861 139.159 65.1359C139.142 57.932 139.155 50.7281 139.155 43.5253Z" fill="#1E1E1E"/>
<path d="M318.603 17.6397C317.965 15.8657 317.321 14.0771 317.309 14.0537C317.002 13.3658 316.291 12.9325 315.541 13.0086C315.067 13.0467 303.846 14.0127 296.657 19.7942C292.898 23.266 285.393 43.5641 285.393 61.1134C285.393 61.4237 285.472 61.7252 285.627 61.9946C290.811 71.0985 304.944 73.4814 308.164 73.5838C308.185 73.5868 308.202 73.5868 308.22 73.5868C308.788 73.5868 309.321 73.3145 309.66 72.8549L313.144 68.1361C307.389 67.2608 306.349 66.1192 306.106 65.9406C304.807 64.9834 303.846 63.6426 305.012 61.9506C305.907 60.6363 307.787 60.203 309.227 60.9436C310.702 61.6316 314.651 63.8446 326.375 63.7861C338.017 63.7509 343.128 61.3125 343.201 61.2598C345.157 60.3787 346.682 60.7417 347.633 62.0472C348.766 63.8241 347.958 65.0273 346.664 65.9816C346.422 66.1601 345.833 66.6607 339.651 68.1244L343.09 72.852C343.427 73.3145 343.963 73.5838 344.53 73.5838C344.551 73.5838 344.569 73.5838 344.586 73.5809C347.809 73.4785 361.942 71.0956 367.124 61.9916C367.279 61.7223 367.358 61.4208 367.358 61.1105C367.358 43.5641 359.852 23.266 356 19.7181C348.904 14.0156 337.683 13.0496 337.209 13.0086C336.46 12.9442 335.748 13.3687 335.441 14.0537C335.429 14.0771 334.803 15.895 334.197 17.6485C334.197 17.6485 329.423 16.9488 326.375 16.9488C323.328 16.9488 318.603 17.6397 318.603 17.6397ZM314.666 55.0041C311.431 55.0041 308.811 51.102 308.811 46.2836C308.811 41.4652 311.431 37.5631 314.666 37.5631C317.912 37.0801 320.45 41.4652 320.521 46.2836C320.521 51.102 317.901 55.0041 314.666 55.0041ZM338.084 55.0041C334.85 55.0041 332.23 51.0756 332.23 46.2309C332.23 41.3862 334.85 37.4577 338.084 37.4577C341.319 37.4577 343.939 41.3862 343.939 46.2309C343.939 51.0756 341.319 55.0041 338.084 55.0041Z" fill="#1E1E1E"/>
<path d="M482.783 75.064L457.38 38.0303L457.424 38.0649L480.328 11.5215H472.674L454.016 33.1259L439.199 11.5215H419.125L442.841 46.0973L442.838 46.0944L417.825 75.064H425.479L446.223 51.0276L462.709 75.064H482.783ZM436.166 17.2981L471.807 69.2874H465.742L430.072 17.2981H436.166Z" fill="#1E1E1E"/>
</svg>
