<svg width="483" height="87" viewBox="0 0 483 87" fill="none" xmlns="http://www.w3.org/2000/svg">
<path d="M38.3644 6.10352L0.675293 43.9063H17.1525L27.4933 33.5655V70.3455L38.3644 81.2167V6.10352Z" fill="white"/>
<path d="M50.4477 6.10352L88.1368 43.9063H71.6597L61.3188 33.5655V70.3455L50.4477 81.2167V6.10352Z" fill="white"/>
<path d="M138.609 43.8925C138.609 36.7899 138.601 29.6874 138.613 22.5849C138.619 19.292 140.133 16.8803 143.137 15.5773C146.138 14.2755 149.022 14.7716 151.37 17.0194C156.304 21.7447 161.123 26.5908 165.989 31.3862C167.619 32.9922 169.266 34.5832 170.872 36.2129C171.486 36.8352 171.858 36.7716 172.371 36.0684C176.769 30.0347 181.209 24.0324 185.61 18.0009C187.094 15.9656 189.072 14.9733 191.558 14.9723C203.474 14.9658 215.391 14.9658 227.307 14.9723C231.277 14.9744 234.348 17.9222 234.379 21.7339C234.41 25.5316 231.38 28.6369 227.459 28.6693C221.029 28.7221 214.6 28.6865 208.171 28.6887C207.901 28.6887 207.623 28.6455 207.365 28.7005C207.06 28.7652 206.623 28.8418 206.521 29.0489C206.423 29.2495 206.603 29.6853 206.791 29.9118C208.206 31.6235 209.649 33.3115 211.091 34.9995C212.008 36.0738 212.939 37.1372 213.862 38.2072C216.777 41.5789 216.947 45.2547 214.177 48.7418C211.857 51.6626 209.378 54.4583 206.993 57.3284C206.744 57.6294 206.656 58.0651 206.494 58.4372C206.894 58.544 207.293 58.7435 207.692 58.7446C214.155 58.764 220.619 58.7198 227.08 58.7942C228.251 58.8072 229.5 59.0984 230.567 59.5816C233.445 60.8856 234.707 63.4516 234.186 66.5072C233.69 69.4205 231.242 71.7729 228.336 72.1073C227.803 72.1687 227.262 72.1806 226.724 72.1806C216.491 72.1849 206.258 72.2086 196.025 72.1612C194.123 72.1525 192.156 72.1019 190.335 71.6262C186.33 70.5789 184.601 66.8427 186.359 63.0967C187.236 61.2286 188.45 59.4964 189.664 57.8116C192.831 53.4185 196.063 49.074 199.313 44.7424C199.906 43.9518 199.925 43.4459 199.241 42.6758C196.852 39.9836 194.552 37.2128 192.216 34.4742C191.166 33.2425 191.119 33.2468 190.175 34.5066C185.943 40.1605 181.61 45.7422 177.514 51.4922C174.947 55.0947 169.609 54.6212 167.187 52.1976C163.239 48.2446 159.259 44.3228 155.267 40.414C154.846 40.002 154.256 39.7647 153.745 39.4454C153.621 40.0387 153.392 40.633 153.39 41.2262C153.365 48.8669 153.386 56.5087 153.369 64.1494C153.359 68.2308 150.667 71.6079 146.918 72.3208C142.541 73.1492 138.624 69.9533 138.613 65.503C138.596 58.2992 138.609 51.0953 138.609 43.8925Z" fill="white"/>
<path d="M318.057 18.0069C317.419 16.2329 316.775 14.4443 316.763 14.4209C316.456 13.733 315.745 13.2997 314.995 13.3758C314.521 13.4139 303.301 14.3799 296.111 20.1614C292.352 23.6332 284.847 43.9313 284.847 61.4806C284.847 61.7909 284.926 62.0924 285.081 62.3617C290.265 71.4657 304.398 73.8486 307.618 73.951C307.639 73.954 307.656 73.954 307.674 73.954C308.242 73.954 308.775 73.6817 309.114 73.2221L312.598 68.5033C306.843 67.628 305.803 66.4863 305.56 66.3078C304.261 65.3505 303.301 64.0098 304.466 62.3178C305.361 61.0035 307.241 60.5702 308.681 61.3108C310.156 61.9987 314.105 64.2118 325.829 64.1533C337.471 64.1181 342.582 61.6797 342.656 61.627C344.611 60.7458 346.136 61.1088 347.088 62.4144C348.22 64.1913 347.412 65.3945 346.119 66.3488C345.876 66.5273 345.287 67.0279 339.105 68.4916L342.544 73.2192C342.881 73.6817 343.417 73.951 343.985 73.951C344.005 73.951 344.023 73.951 344.04 73.9481C347.263 73.8456 361.396 71.4628 366.578 62.3588C366.733 62.0895 366.812 61.788 366.812 61.4777C366.812 43.9313 359.306 23.6332 355.454 20.0853C348.358 14.3828 337.138 13.4168 336.663 13.3758C335.914 13.3114 335.203 13.7359 334.895 14.4209C334.884 14.4443 334.257 16.2622 333.651 18.0156C333.651 18.0156 328.877 17.316 325.829 17.316C322.782 17.316 318.057 18.0069 318.057 18.0069ZM314.12 55.3713C310.885 55.3713 308.265 51.4692 308.265 46.6508C308.265 41.8324 310.885 37.9303 314.12 37.9303C317.366 37.4472 319.904 41.8324 319.975 46.6508C319.975 51.4692 317.355 55.3713 314.12 55.3713ZM337.539 55.3713C334.304 55.3713 331.684 51.4428 331.684 46.5981C331.684 41.7533 334.304 37.8249 337.539 37.8249C340.773 37.8249 343.393 41.7533 343.393 46.5981C343.393 51.4428 340.773 55.3713 337.539 55.3713Z" fill="white"/>
<path d="M482.237 75.4312L456.835 38.3975L456.878 38.4321L479.782 11.8887H472.128L453.47 33.4931L438.653 11.8887H418.579L442.295 46.4645L442.292 46.4616L417.279 75.4312H424.933L445.677 51.3948L462.163 75.4312H482.237ZM435.62 17.6653L471.262 69.6546H465.196L429.526 17.6653H435.62Z" fill="white"/>
</svg>
