<svg width="35" height="36" viewBox="0 0 35 36" fill="none" xmlns="http://www.w3.org/2000/svg">
<path d="M17.7943 0.697415C17.4696 0.702491 17.1601 0.836184 16.9339 1.06915C16.7077 1.30212 16.5831 1.61533 16.5875 1.94004V5.61765C16.5852 5.78009 16.6153 5.94137 16.6758 6.09211C16.7364 6.24286 16.8263 6.38006 16.9404 6.49574C17.0545 6.61143 17.1904 6.70329 17.3402 6.76599C17.4901 6.82869 17.651 6.86098 17.8134 6.86098C17.9759 6.86098 18.1367 6.82869 18.2866 6.76599C18.4365 6.70329 18.5724 6.61143 18.6864 6.49574C18.8005 6.38006 18.8904 6.24286 18.951 6.09211C19.0116 5.94137 19.0416 5.78009 19.0393 5.61765V1.94004C19.0415 1.77604 19.0108 1.61324 18.949 1.46131C18.8872 1.30937 18.7956 1.17139 18.6795 1.05552C18.5634 0.939646 18.4252 0.848249 18.2732 0.786738C18.1211 0.725228 17.9583 0.694854 17.7943 0.697415ZM6.53159 5.37104C6.28793 5.37158 6.04995 5.44471 5.84804 5.58111C5.64613 5.7175 5.48944 5.91096 5.39797 6.13681C5.3065 6.36265 5.2844 6.61063 5.3345 6.84908C5.3846 7.08754 5.50461 7.30566 5.67923 7.47561L8.27941 10.0758C8.39237 10.1934 8.52766 10.2874 8.67738 10.3521C8.82709 10.4168 8.98821 10.451 9.1513 10.4526C9.31439 10.4543 9.47617 10.4234 9.62717 10.3617C9.77816 10.3001 9.91534 10.2089 10.0307 10.0936C10.146 9.97827 10.2372 9.84109 10.2988 9.69009C10.3604 9.53909 10.3913 9.37731 10.3897 9.21422C10.388 9.05114 10.3538 8.89002 10.2891 8.7403C10.2244 8.59059 10.1305 8.45529 10.0129 8.34234L7.41268 5.74215C7.29816 5.62443 7.16116 5.53092 7.0098 5.46717C6.85844 5.40342 6.69582 5.37073 6.53159 5.37104ZM29.0569 5.37104C28.7384 5.38053 28.4362 5.51363 28.2141 5.74215L25.614 8.34234C25.4963 8.45529 25.4024 8.59059 25.3377 8.7403C25.273 8.89002 25.2388 9.05114 25.2371 9.21422C25.2355 9.37731 25.2664 9.53909 25.328 9.69009C25.3897 9.84108 25.4808 9.97826 25.5962 10.0936C25.7115 10.2089 25.8487 10.3001 25.9997 10.3617C26.1507 10.4234 26.3124 10.4543 26.4755 10.4526C26.6386 10.451 26.7997 10.4168 26.9494 10.3521C27.0992 10.2874 27.2345 10.1934 27.3474 10.0758L29.9476 7.47561C30.1247 7.30342 30.2457 7.08173 30.2947 6.8396C30.3437 6.59747 30.3184 6.34618 30.2221 6.11868C30.1258 5.89117 29.9631 5.69806 29.7551 5.56465C29.5472 5.43124 29.3039 5.36376 29.0569 5.37104ZM17.8134 9.29526C15.5376 9.29526 13.3549 10.1993 11.7457 11.8086C10.1364 13.4179 9.23233 15.6005 9.23233 17.8763C9.23233 20.1522 10.1364 22.3348 11.7457 23.9441C13.3549 25.5533 15.5376 26.4574 17.8134 26.4574C20.0893 26.4574 22.2719 25.5533 23.8812 23.9441C25.4904 22.3348 26.3945 20.1522 26.3945 17.8763C26.3945 15.6005 25.4904 13.4179 23.8812 11.8086C22.2719 10.1993 20.0893 9.29526 17.8134 9.29526ZM1.87712 16.6505C1.71468 16.6482 1.5534 16.6782 1.40265 16.7388C1.25191 16.7993 1.11471 16.8893 0.999025 17.0033C0.88334 17.1174 0.791478 17.2533 0.728778 17.4032C0.666077 17.553 0.633789 17.7139 0.633789 17.8763C0.633789 18.0388 0.666077 18.1996 0.728778 18.3495C0.791478 18.4994 0.88334 18.6353 0.999025 18.7494C1.11471 18.8634 1.25191 18.9533 1.40265 19.0139C1.5534 19.0745 1.71468 19.1045 1.87712 19.1022H5.55472C5.71717 19.1045 5.87845 19.0745 6.02919 19.0139C6.17993 18.9533 6.31713 18.8634 6.43282 18.7494C6.5485 18.6353 6.64036 18.4994 6.70306 18.3495C6.76576 18.1996 6.79805 18.0388 6.79805 17.8763C6.79805 17.7139 6.76576 17.553 6.70306 17.4032C6.64036 17.2533 6.5485 17.1174 6.43282 17.0033C6.31713 16.8893 6.17993 16.7993 6.02919 16.7388C5.87845 16.6782 5.71717 16.6482 5.55472 16.6505H1.87712ZM30.0721 16.6505C29.9097 16.6482 29.7484 16.6782 29.5976 16.7388C29.4469 16.7993 29.3097 16.8893 29.194 17.0033C29.0783 17.1174 28.9865 17.2533 28.9238 17.4032C28.8611 17.553 28.8288 17.7139 28.8288 17.8763C28.8288 18.0388 28.8611 18.1996 28.9238 18.3495C28.9865 18.4994 29.0783 18.6353 29.194 18.7494C29.3097 18.8634 29.4469 18.9533 29.5976 19.0139C29.7484 19.0745 29.9097 19.1045 30.0721 19.1022H33.7497C33.9121 19.1045 34.0734 19.0745 34.2242 19.0139C34.3749 18.9533 34.5121 18.8634 34.6278 18.7494C34.7435 18.6353 34.8353 18.4994 34.898 18.3495C34.9607 18.1996 34.993 18.0388 34.993 17.8763C34.993 17.7139 34.9607 17.553 34.898 17.4032C34.8353 17.2533 34.7435 17.1174 34.6278 17.0033C34.5121 16.8893 34.3749 16.7993 34.2242 16.7388C34.0734 16.6782 33.9121 16.6482 33.7497 16.6505H30.0721ZM9.12219 25.3058C8.80371 25.3153 8.50144 25.4484 8.27941 25.6769L5.67923 28.2771C5.56158 28.39 5.46765 28.5253 5.40295 28.675C5.33824 28.8248 5.30406 28.9859 5.3024 29.149C5.30075 29.312 5.33165 29.4738 5.39329 29.6248C5.45494 29.7758 5.5461 29.913 5.66143 30.0283C5.77675 30.1437 5.91393 30.2348 6.06493 30.2965C6.21592 30.3581 6.3777 30.389 6.54079 30.3873C6.70388 30.3857 6.865 30.3515 7.01471 30.2868C7.16443 30.2221 7.29972 30.1282 7.41268 30.0105L10.0129 27.4103C10.19 27.2382 10.311 27.0165 10.36 26.7743C10.409 26.5322 10.3837 26.2809 10.2874 26.0534C10.1911 25.8259 10.0283 25.6328 9.82041 25.4994C9.6125 25.366 9.36913 25.2985 9.12219 25.3058ZM26.4687 25.3058C26.2248 25.3058 25.9865 25.3786 25.7843 25.5148C25.582 25.651 25.4249 25.8445 25.3332 26.0704C25.2414 26.2964 25.2191 26.5446 25.2691 26.7832C25.3191 27.0219 25.4392 27.2403 25.614 27.4103L28.2141 30.0105C28.3271 30.1282 28.4624 30.2221 28.6121 30.2868C28.7618 30.3515 28.9229 30.3857 29.086 30.3873C29.2491 30.389 29.4109 30.3581 29.5619 30.2964C29.7129 30.2348 29.8501 30.1436 29.9654 30.0283C30.0807 29.913 30.1719 29.7758 30.2335 29.6248C30.2952 29.4738 30.3261 29.312 30.3244 29.149C30.3228 28.9859 30.2886 28.8248 30.2239 28.675C30.1592 28.5253 30.0652 28.39 29.9476 28.2771L27.3474 25.6769C27.2332 25.5595 27.0966 25.4661 26.9456 25.4024C26.7947 25.3386 26.6325 25.3058 26.4687 25.3058ZM17.7943 28.8924C17.4696 28.8975 17.1601 29.0312 16.9339 29.2641C16.7077 29.4971 16.5831 29.8103 16.5875 30.135V33.8126C16.5852 33.9751 16.6153 34.1364 16.6758 34.2871C16.7364 34.4378 16.8263 34.575 16.9404 34.6907C17.0545 34.8064 17.1904 34.8983 17.3402 34.961C17.4901 35.0237 17.651 35.056 17.8134 35.056C17.9759 35.056 18.1367 35.0237 18.2866 34.961C18.4365 34.8983 18.5724 34.8064 18.6864 34.6907C18.8005 34.575 18.8904 34.4378 18.951 34.2871C19.0116 34.1364 19.0416 33.9751 19.0393 33.8126V30.135C19.0415 29.971 19.0108 29.8082 18.949 29.6563C18.8872 29.5044 18.7956 29.3664 18.6795 29.2505C18.5634 29.1346 18.4252 29.0432 18.2732 28.9817C18.1211 28.9202 17.9583 28.8898 17.7943 28.8924Z" fill="white"/>
</svg>
