<svg width="444" height="59" viewBox="0 0 444 59" fill="none" xmlns="http://www.w3.org/2000/svg">
<path d="M49.6704 17.5666C49.0409 16.8289 48.1251 16.404 47.1551 16.404H3.58858C2.61996 16.404 1.70282 16.8276 1.07467 17.5666C0.44652 18.3069 0.175994 19.2848 0.334351 20.2521C0.590361 21.8211 2.04988 23.0022 3.7311 23.0022H18.1059C18.4688 23.0022 18.7657 23.2991 18.7657 23.662C18.7657 23.662 18.7657 46.1988 18.7657 55.2661C18.8067 56.8919 19.9363 58.255 21.405 58.5599C23.1021 58.9109 24.9166 57.7787 25.3639 55.9246C25.3639 52.157 25.3639 39.4647 25.3639 39.4647C25.3639 39.1005 25.6595 38.8062 26.0238 38.8062C26.388 38.8062 26.6836 39.1005 26.6836 39.4647C26.6836 39.4647 26.6836 52.1583 26.6836 55.9246C27.1309 57.7787 28.9454 58.9109 30.6425 58.5599C32.1112 58.255 33.2409 56.8919 33.2818 55.2661C33.2818 46.1988 33.2818 23.662 33.2818 23.662C33.2818 23.2991 33.5787 23.0022 33.9416 23.0022H47.0139C48.6938 23.0022 50.1547 21.8198 50.4094 20.2521C50.5677 19.2848 50.2972 18.3069 49.6704 17.5666ZM25.3639 0.568359C21.3554 0.568359 18.1059 3.81788 18.1059 7.82637C18.1059 11.8349 21.3554 15.0844 25.3639 15.0844C29.3724 15.0844 32.622 11.8349 32.622 7.82637C32.622 3.81788 29.3724 0.568359 25.3639 0.568359Z" fill="black"/>
<path d="M77.4698 21.5582H66.1823V16.3457H96.3323V21.5582H85.0448V42.5957H77.4698V21.5582ZM112.09 32.0582H91.8024V26.8832H112.09V32.0582ZM134.756 35.1332H124.406V42.5957H116.831V16.3457H134.756C144.093 16.3457 148.256 19.6082 148.256 25.7207C148.256 31.9832 143.756 35.1332 134.756 35.1332ZM134.718 21.5207H124.406V29.9207H134.718C138.468 29.9207 140.681 28.5332 140.681 25.7207C140.681 22.9082 138.468 21.5207 134.718 21.5207ZM164.98 26.9957C161.08 26.9957 158.343 29.0207 158.343 32.6207C158.343 36.2207 161.08 38.2457 164.98 38.2457C168.918 38.2457 171.655 36.2207 171.655 32.6207C171.655 29.0207 168.918 26.9957 164.98 26.9957ZM179.118 32.6207C179.118 35.8457 177.88 38.3957 175.368 40.2332C172.855 42.0707 169.405 42.9707 165.018 42.9707C160.63 42.9707 157.143 42.0332 154.63 40.1957C152.118 38.3582 150.88 35.8082 150.88 32.6207C150.88 29.4332 152.118 26.8832 154.63 25.0457C157.143 23.2082 160.63 22.2707 165.018 22.2707C169.405 22.2707 172.855 23.2082 175.368 25.0457C177.88 26.8832 179.118 29.4332 179.118 32.6207ZM195.427 29.9207C203.264 30.3332 207.539 32.0957 207.539 36.1457C207.539 40.6832 203.339 42.9707 194.902 42.9707C190.177 42.9707 185.789 42.4457 181.777 41.3582V36.5957C186.014 37.9082 190.364 38.5457 194.902 38.5457C198.464 38.5457 200.264 37.9832 200.264 36.8582C200.264 35.5457 198.652 35.2082 194.152 34.9082C190.514 34.7207 187.852 34.2332 185.489 33.3332C183.202 32.3957 181.927 30.8207 181.927 28.6832C181.927 24.6707 186.614 22.2707 194.602 22.2707C198.689 22.2707 202.252 22.6457 205.252 23.3957V27.9707C202.177 27.1082 198.839 26.6582 195.239 26.6582C191.152 26.6582 189.127 27.1832 189.127 28.1957C189.127 29.3957 190.739 29.6207 194.602 29.8832C194.977 29.9207 195.239 29.9207 195.427 29.9207ZM238.181 32.3582V34.3832H218.156C218.719 36.9707 221.644 38.2457 226.894 38.2457C228.581 38.2457 230.381 38.0957 232.256 37.7582C234.131 37.4207 235.631 37.0457 236.719 36.6332V41.6207C235.406 42.0332 233.606 42.3332 231.244 42.5957C228.919 42.8582 226.781 42.9707 224.869 42.9707C215.606 42.9707 210.206 39.2207 210.206 32.6207C210.206 29.5082 211.444 26.9957 213.919 25.1207C216.431 23.2082 219.844 22.2707 224.156 22.2707C228.544 22.2707 231.956 23.1707 234.431 24.9707C236.906 26.7707 238.144 29.2457 238.181 32.3582ZM218.119 31.0457H230.306C230.119 28.3832 227.906 26.8832 224.156 26.8832C221.119 26.8832 218.756 28.4582 218.119 31.0457ZM269.515 40.7957L267.19 45.5582C259.053 43.2707 254.29 37.5707 254.29 29.4707C254.29 21.3707 259.053 15.6707 267.19 13.3832L269.515 18.1457C264.715 19.9457 261.94 23.9207 261.94 29.4707C261.94 35.0207 264.715 38.9957 269.515 40.7957ZM274.228 42.5957V16.3457H294.103C301.416 16.3457 305.091 18.5957 305.091 23.0957C305.091 25.9832 303.516 27.9332 300.366 28.9457V29.1332C304.341 30.0332 306.328 32.1707 306.328 35.5832C306.328 40.2707 302.653 42.5957 295.341 42.5957H274.228ZM281.803 37.8332H293.466C296.466 37.8332 298.378 36.7082 298.378 34.4957C298.378 32.2832 296.466 31.1207 293.466 31.1207H281.803V37.8332ZM292.228 21.1082H281.803V27.1832H292.228C295.228 27.1832 297.141 26.0957 297.141 24.1457C297.141 22.1582 295.228 21.1082 292.228 21.1082ZM311.022 42.5957V15.2207H318.447V42.5957H311.022ZM351.048 32.3582V34.3832H331.023C331.585 36.9707 334.51 38.2457 339.76 38.2457C341.448 38.2457 343.248 38.0957 345.123 37.7582C346.998 37.4207 348.498 37.0457 349.585 36.6332V41.6207C348.273 42.0332 346.473 42.3332 344.11 42.5957C341.785 42.8582 339.648 42.9707 337.735 42.9707C328.473 42.9707 323.073 39.2207 323.073 32.6207C323.073 29.5082 324.31 26.9957 326.785 25.1207C329.298 23.2082 332.71 22.2707 337.023 22.2707C341.41 22.2707 344.823 23.1707 347.298 24.9707C349.773 26.7707 351.01 29.2457 351.048 32.3582ZM330.985 31.0457H343.173C342.985 28.3832 340.773 26.8832 337.023 26.8832C333.985 26.8832 331.623 28.4582 330.985 31.0457ZM372.506 22.2707C379.893 22.2707 384.168 26.1332 384.168 32.4707V42.5957H376.706V32.4707C376.706 28.9832 374.006 26.9957 369.693 26.9957C365.456 26.9957 362.756 28.9457 362.756 32.4332V42.5957H355.331V22.6457H362.006L362.456 25.7582H362.643C364.781 23.4332 368.043 22.2707 372.506 22.2707ZM400.553 22.2707C404.64 22.2707 407.715 23.3957 409.815 25.6082H410.003V15.2207H417.428V42.5957H410.753L410.265 39.1832H410.078C407.865 41.6957 404.715 42.9707 400.553 42.9707C396.765 42.9707 393.803 42.0332 391.665 40.1582C389.528 38.2457 388.478 35.7332 388.478 32.5457C388.478 29.3957 389.528 26.8832 391.665 25.0457C393.803 23.2082 396.765 22.2707 400.553 22.2707ZM402.953 38.2457C407.04 38.2457 409.928 36.0332 409.928 32.5457C409.928 29.0957 407.04 26.9957 402.953 26.9957C398.715 26.9957 395.94 29.0582 395.94 32.5457C395.94 36.1082 398.715 38.2457 402.953 38.2457ZM423.9 45.5582L421.575 40.7957C426.375 38.9957 429.15 35.0207 429.15 29.4707C429.15 23.9207 426.375 19.9457 421.575 18.1457L423.9 13.3832C432.038 15.6707 436.8 21.3707 436.8 29.4707C436.8 37.5707 432.038 43.2707 423.9 45.5582Z" fill="black"/>
</svg>
