<svg width="444" height="59" viewBox="0 0 444 59" fill="none" xmlns="http://www.w3.org/2000/svg">
<path d="M50.1704 17.5666C49.5409 16.8289 48.6251 16.404 47.6551 16.404H4.08858C3.11996 16.404 2.20282 16.8276 1.57467 17.5666C0.94652 18.3069 0.675994 19.2848 0.834351 20.2521C1.09036 21.8211 2.54988 23.0022 4.2311 23.0022H18.6059C18.9688 23.0022 19.2657 23.2991 19.2657 23.662C19.2657 23.662 19.2657 46.1988 19.2657 55.2661C19.3067 56.8919 20.4363 58.255 21.905 58.5599C23.6021 58.9109 25.4166 57.7787 25.8639 55.9246C25.8639 52.157 25.8639 39.4647 25.8639 39.4647C25.8639 39.1005 26.1595 38.8062 26.5238 38.8062C26.888 38.8062 27.1836 39.1005 27.1836 39.4647C27.1836 39.4647 27.1836 52.1583 27.1836 55.9246C27.6309 57.7787 29.4454 58.9109 31.1425 58.5599C32.6112 58.255 33.7409 56.8919 33.7818 55.2661C33.7818 46.1988 33.7818 23.662 33.7818 23.662C33.7818 23.2991 34.0787 23.0022 34.4416 23.0022H47.5139C49.1938 23.0022 50.6547 21.8198 50.9094 20.2521C51.0677 19.2848 50.7972 18.3069 50.1704 17.5666ZM25.8639 0.568359C21.8554 0.568359 18.6059 3.81788 18.6059 7.82637C18.6059 11.8349 21.8554 15.0844 25.8639 15.0844C29.8724 15.0844 33.122 11.8349 33.122 7.82637C33.122 3.81788 29.8724 0.568359 25.8639 0.568359Z" fill="white"/>
<path d="M77.9693 21.5582H66.6818V16.3457H96.8318V21.5582H85.5443V42.5957H77.9693V21.5582ZM112.589 32.0582H92.302V26.8832H112.589V32.0582ZM135.255 35.1332H124.905V42.5957H117.33V16.3457H135.255C144.593 16.3457 148.755 19.6082 148.755 25.7207C148.755 31.9832 144.255 35.1332 135.255 35.1332ZM135.218 21.5207H124.905V29.9207H135.218C138.968 29.9207 141.18 28.5332 141.18 25.7207C141.18 22.9082 138.968 21.5207 135.218 21.5207ZM165.48 26.9957C161.58 26.9957 158.842 29.0207 158.842 32.6207C158.842 36.2207 161.58 38.2457 165.48 38.2457C169.417 38.2457 172.155 36.2207 172.155 32.6207C172.155 29.0207 169.417 26.9957 165.48 26.9957ZM179.617 32.6207C179.617 35.8457 178.38 38.3957 175.867 40.2332C173.355 42.0707 169.905 42.9707 165.517 42.9707C161.13 42.9707 157.642 42.0332 155.13 40.1957C152.617 38.3582 151.38 35.8082 151.38 32.6207C151.38 29.4332 152.617 26.8832 155.13 25.0457C157.642 23.2082 161.13 22.2707 165.517 22.2707C169.905 22.2707 173.355 23.2082 175.867 25.0457C178.38 26.8832 179.617 29.4332 179.617 32.6207ZM195.926 29.9207C203.764 30.3332 208.039 32.0957 208.039 36.1457C208.039 40.6832 203.839 42.9707 195.401 42.9707C190.676 42.9707 186.289 42.4457 182.276 41.3582V36.5957C186.514 37.9082 190.864 38.5457 195.401 38.5457C198.964 38.5457 200.764 37.9832 200.764 36.8582C200.764 35.5457 199.151 35.2082 194.651 34.9082C191.014 34.7207 188.351 34.2332 185.989 33.3332C183.701 32.3957 182.426 30.8207 182.426 28.6832C182.426 24.6707 187.114 22.2707 195.101 22.2707C199.189 22.2707 202.751 22.6457 205.751 23.3957V27.9707C202.676 27.1082 199.339 26.6582 195.739 26.6582C191.651 26.6582 189.626 27.1832 189.626 28.1957C189.626 29.3957 191.239 29.6207 195.101 29.8832C195.476 29.9207 195.739 29.9207 195.926 29.9207ZM238.681 32.3582V34.3832H218.656C219.218 36.9707 222.143 38.2457 227.393 38.2457C229.081 38.2457 230.881 38.0957 232.756 37.7582C234.631 37.4207 236.131 37.0457 237.218 36.6332V41.6207C235.906 42.0332 234.106 42.3332 231.743 42.5957C229.418 42.8582 227.281 42.9707 225.368 42.9707C216.106 42.9707 210.706 39.2207 210.706 32.6207C210.706 29.5082 211.943 26.9957 214.418 25.1207C216.931 23.2082 220.343 22.2707 224.656 22.2707C229.043 22.2707 232.456 23.1707 234.931 24.9707C237.406 26.7707 238.643 29.2457 238.681 32.3582ZM218.618 31.0457H230.806C230.618 28.3832 228.406 26.8832 224.656 26.8832C221.618 26.8832 219.256 28.4582 218.618 31.0457ZM270.015 40.7957L267.69 45.5582C259.552 43.2707 254.79 37.5707 254.79 29.4707C254.79 21.3707 259.552 15.6707 267.69 13.3832L270.015 18.1457C265.215 19.9457 262.44 23.9207 262.44 29.4707C262.44 35.0207 265.215 38.9957 270.015 40.7957ZM274.728 42.5957V16.3457H294.603C301.915 16.3457 305.59 18.5957 305.59 23.0957C305.59 25.9832 304.015 27.9332 300.865 28.9457V29.1332C304.84 30.0332 306.828 32.1707 306.828 35.5832C306.828 40.2707 303.153 42.5957 295.84 42.5957H274.728ZM282.303 37.8332H293.965C296.965 37.8332 298.878 36.7082 298.878 34.4957C298.878 32.2832 296.965 31.1207 293.965 31.1207H282.303V37.8332ZM292.728 21.1082H282.303V27.1832H292.728C295.728 27.1832 297.64 26.0957 297.64 24.1457C297.64 22.1582 295.728 21.1082 292.728 21.1082ZM311.521 42.5957V15.2207H318.946V42.5957H311.521ZM351.547 32.3582V34.3832H331.522C332.085 36.9707 335.01 38.2457 340.26 38.2457C341.947 38.2457 343.747 38.0957 345.622 37.7582C347.497 37.4207 348.997 37.0457 350.085 36.6332V41.6207C348.772 42.0332 346.972 42.3332 344.61 42.5957C342.285 42.8582 340.147 42.9707 338.235 42.9707C328.972 42.9707 323.572 39.2207 323.572 32.6207C323.572 29.5082 324.81 26.9957 327.285 25.1207C329.797 23.2082 333.21 22.2707 337.522 22.2707C341.91 22.2707 345.322 23.1707 347.797 24.9707C350.272 26.7707 351.51 29.2457 351.547 32.3582ZM331.485 31.0457H343.672C343.485 28.3832 341.272 26.8832 337.522 26.8832C334.485 26.8832 332.122 28.4582 331.485 31.0457ZM373.005 22.2707C380.393 22.2707 384.668 26.1332 384.668 32.4707V42.5957H377.205V32.4707C377.205 28.9832 374.505 26.9957 370.193 26.9957C365.955 26.9957 363.255 28.9457 363.255 32.4332V42.5957H355.83V22.6457H362.505L362.955 25.7582H363.143C365.28 23.4332 368.543 22.2707 373.005 22.2707ZM401.052 22.2707C405.14 22.2707 408.215 23.3957 410.315 25.6082H410.502V15.2207H417.927V42.5957H411.252L410.765 39.1832H410.577C408.365 41.6957 405.215 42.9707 401.052 42.9707C397.265 42.9707 394.302 42.0332 392.165 40.1582C390.027 38.2457 388.977 35.7332 388.977 32.5457C388.977 29.3957 390.027 26.8832 392.165 25.0457C394.302 23.2082 397.265 22.2707 401.052 22.2707ZM403.452 38.2457C407.54 38.2457 410.427 36.0332 410.427 32.5457C410.427 29.0957 407.54 26.9957 403.452 26.9957C399.215 26.9957 396.44 29.0582 396.44 32.5457C396.44 36.1082 399.215 38.2457 403.452 38.2457ZM424.4 45.5582L422.075 40.7957C426.875 38.9957 429.65 35.0207 429.65 29.4707C429.65 23.9207 426.875 19.9457 422.075 18.1457L424.4 13.3832C432.537 15.6707 437.3 21.3707 437.3 29.4707C437.3 37.5707 432.537 43.2707 424.4 45.5582Z" fill="white"/>
</svg>
