<svg width="35" height="27" viewBox="0 0 35 27" fill="none" xmlns="http://www.w3.org/2000/svg">
<path d="M15.9906 25.5191C16.1458 25.7445 16.3535 25.9288 16.5957 26.0562C16.838 26.1835 17.1075 26.25 17.3812 26.25C17.6549 26.25 17.9244 26.1835 18.1667 26.0562C18.4089 25.9288 18.6166 25.7445 18.7718 25.5191L33.9969 3.5273C34.1731 3.27364 34.2765 2.97654 34.2957 2.66827C34.3149 2.36 34.2493 2.05236 34.106 1.77876C33.9626 1.50517 33.7471 1.27609 33.4827 1.11641C33.2183 0.956731 32.9152 0.872562 32.6063 0.873049H2.15608C1.84793 0.874322 1.54596 0.959573 1.28263 1.11963C1.01931 1.27969 0.804602 1.50851 0.661597 1.78147C0.518592 2.05443 0.452703 2.36121 0.471013 2.66882C0.489324 2.97643 0.591142 3.27323 0.765519 3.5273L15.9906 25.5191Z" fill="black"/>
</svg>
